<?xml version="1.0" encoding="utf-8" standalone="no"?>
<!DOCTYPE svg PUBLIC "-//W3C//DTD SVG 1.1//EN"
  "http://www.w3.org/Graphics/SVG/1.1/DTD/svg11.dtd">
<svg xmlns:xlink="http://www.w3.org/1999/xlink" width="490.429761pt" height="206.49773pt" viewBox="0 0 490.429761 206.49773" xmlns="http://www.w3.org/2000/svg" version="1.1">
 <metadata>
  <rdf:RDF xmlns:dc="http://purl.org/dc/elements/1.1/" xmlns:cc="http://creativecommons.org/ns#" xmlns:rdf="http://www.w3.org/1999/02/22-rdf-syntax-ns#">
   <cc:Work>
    <dc:type rdf:resource="http://purl.org/dc/dcmitype/StillImage"/>
    <dc:date>2024-04-29T18:58:18.391749</dc:date>
    <dc:format>image/svg+xml</dc:format>
    <dc:creator>
     <cc:Agent>
      <dc:title>Matplotlib v3.6.3, https://matplotlib.org/</dc:title>
     </cc:Agent>
    </dc:creator>
   </cc:Work>
  </rdf:RDF>
 </metadata>
 <defs>
  <style type="text/css">*{stroke-linejoin: round; stroke-linecap: butt}</style>
 </defs>
 <g id="figure_1">
  <g id="patch_1">
   <path d="M 0 206.49773 
L 490.429761 206.49773 
L 490.429761 0 
L 0 0 
z
" style="fill: #ffffff"/>
  </g>
  <g id="axes_1">
   <g id="patch_2">
    <path d="M 44.029761 181.286376 
L 490.429761 181.286376 
L 490.429761 14.966376 
L 44.029761 14.966376 
z
" style="fill: #ffffff"/>
   </g>
   <g id="PathCollection_1">
    <defs>
     <path id="mcbe7664794" d="M 0 1.118034 
C 0.296506 1.118034 0.580908 1.000231 0.790569 0.790569 
C 1.000231 0.580908 1.118034 0.296506 1.118034 0 
C 1.118034 -0.296506 1.000231 -0.580908 0.790569 -0.790569 
C 0.580908 -1.000231 0.296506 -1.118034 0 -1.118034 
C -0.296506 -1.118034 -0.580908 -1.000231 -0.790569 -0.790569 
C -1.000231 -0.580908 -1.118034 -0.296506 -1.118034 0 
C -1.118034 0.296506 -1.000231 0.580908 -0.790569 0.790569 
C -0.580908 1.000231 -0.296506 1.118034 0 1.118034 
z
" style="stroke: #0c5da5; stroke-opacity: 0.8"/>
    </defs>
    <g clip-path="url(#p4291471faa)">
     <use xlink:href="#mcbe7664794" x="64.320671" y="86.211079" style="fill: #0c5da5; fill-opacity: 0.8; stroke: #0c5da5; stroke-opacity: 0.8"/>
     <use xlink:href="#mcbe7664794" x="72.437034" y="84.63212" style="fill: #0c5da5; fill-opacity: 0.8; stroke: #0c5da5; stroke-opacity: 0.8"/>
     <use xlink:href="#mcbe7664794" x="80.553398" y="80.421561" style="fill: #0c5da5; fill-opacity: 0.8; stroke: #0c5da5; stroke-opacity: 0.8"/>
     <use xlink:href="#mcbe7664794" x="88.669761" y="84.80756" style="fill: #0c5da5; fill-opacity: 0.8; stroke: #0c5da5; stroke-opacity: 0.8"/>
     <use xlink:href="#mcbe7664794" x="96.786125" y="90.421638" style="fill: #0c5da5; fill-opacity: 0.8; stroke: #0c5da5; stroke-opacity: 0.8"/>
     <use xlink:href="#mcbe7664794" x="104.902489" y="82.70228" style="fill: #0c5da5; fill-opacity: 0.8; stroke: #0c5da5; stroke-opacity: 0.8"/>
     <use xlink:href="#mcbe7664794" x="113.018852" y="83.2286" style="fill: #0c5da5; fill-opacity: 0.8; stroke: #0c5da5; stroke-opacity: 0.8"/>
     <use xlink:href="#mcbe7664794" x="121.135216" y="77.614522" style="fill: #0c5da5; fill-opacity: 0.8; stroke: #0c5da5; stroke-opacity: 0.8"/>
     <use xlink:href="#mcbe7664794" x="129.25158" y="76.035562" style="fill: #0c5da5; fill-opacity: 0.8; stroke: #0c5da5; stroke-opacity: 0.8"/>
     <use xlink:href="#mcbe7664794" x="137.367943" y="92.351478" style="fill: #0c5da5; fill-opacity: 0.8; stroke: #0c5da5; stroke-opacity: 0.8"/>
     <use xlink:href="#mcbe7664794" x="145.484307" y="95.860277" style="fill: #0c5da5; fill-opacity: 0.8; stroke: #0c5da5; stroke-opacity: 0.8"/>
     <use xlink:href="#mcbe7664794" x="153.600671" y="89.018118" style="fill: #0c5da5; fill-opacity: 0.8; stroke: #0c5da5; stroke-opacity: 0.8"/>
     <use xlink:href="#mcbe7664794" x="161.717034" y="121.29907" style="fill: #0c5da5; fill-opacity: 0.8; stroke: #0c5da5; stroke-opacity: 0.8"/>
     <use xlink:href="#mcbe7664794" x="169.833398" y="72.526763" style="fill: #0c5da5; fill-opacity: 0.8; stroke: #0c5da5; stroke-opacity: 0.8"/>
     <use xlink:href="#mcbe7664794" x="177.949761" y="85.860199" style="fill: #0c5da5; fill-opacity: 0.8; stroke: #0c5da5; stroke-opacity: 0.8"/>
     <use xlink:href="#mcbe7664794" x="186.066125" y="96.211157" style="fill: #0c5da5; fill-opacity: 0.8; stroke: #0c5da5; stroke-opacity: 0.8"/>
     <use xlink:href="#mcbe7664794" x="194.182489" y="73.754843" style="fill: #0c5da5; fill-opacity: 0.8; stroke: #0c5da5; stroke-opacity: 0.8"/>
     <use xlink:href="#mcbe7664794" x="202.298852" y="76.386442" style="fill: #0c5da5; fill-opacity: 0.8; stroke: #0c5da5; stroke-opacity: 0.8"/>
     <use xlink:href="#mcbe7664794" x="210.415216" y="87.965479" style="fill: #0c5da5; fill-opacity: 0.8; stroke: #0c5da5; stroke-opacity: 0.8"/>
     <use xlink:href="#mcbe7664794" x="218.53158" y="84.28124" style="fill: #0c5da5; fill-opacity: 0.8; stroke: #0c5da5; stroke-opacity: 0.8"/>
     <use xlink:href="#mcbe7664794" x="226.647943" y="107.614754" style="fill: #0c5da5; fill-opacity: 0.8; stroke: #0c5da5; stroke-opacity: 0.8"/>
     <use xlink:href="#mcbe7664794" x="234.764307" y="113.755152" style="fill: #0c5da5; fill-opacity: 0.8; stroke: #0c5da5; stroke-opacity: 0.8"/>
     <use xlink:href="#mcbe7664794" x="242.880671" y="83.05316" style="fill: #0c5da5; fill-opacity: 0.8; stroke: #0c5da5; stroke-opacity: 0.8"/>
     <use xlink:href="#mcbe7664794" x="250.997034" y="117.263951" style="fill: #0c5da5; fill-opacity: 0.8; stroke: #0c5da5; stroke-opacity: 0.8"/>
     <use xlink:href="#mcbe7664794" x="259.113398" y="146.913303" style="fill: #0c5da5; fill-opacity: 0.8; stroke: #0c5da5; stroke-opacity: 0.8"/>
     <use xlink:href="#mcbe7664794" x="267.229761" y="146.036103" style="fill: #0c5da5; fill-opacity: 0.8; stroke: #0c5da5; stroke-opacity: 0.8"/>
     <use xlink:href="#mcbe7664794" x="275.346125" y="95.158517" style="fill: #0c5da5; fill-opacity: 0.8; stroke: #0c5da5; stroke-opacity: 0.8"/>
     <use xlink:href="#mcbe7664794" x="283.462489" y="92.176038" style="fill: #0c5da5; fill-opacity: 0.8; stroke: #0c5da5; stroke-opacity: 0.8"/>
     <use xlink:href="#mcbe7664794" x="291.578852" y="112.877952" style="fill: #0c5da5; fill-opacity: 0.8; stroke: #0c5da5; stroke-opacity: 0.8"/>
     <use xlink:href="#mcbe7664794" x="299.695216" y="142.527304" style="fill: #0c5da5; fill-opacity: 0.8; stroke: #0c5da5; stroke-opacity: 0.8"/>
     <use xlink:href="#mcbe7664794" x="307.81158" y="115.860431" style="fill: #0c5da5; fill-opacity: 0.8; stroke: #0c5da5; stroke-opacity: 0.8"/>
     <use xlink:href="#mcbe7664794" x="315.927943" y="108.316513" style="fill: #0c5da5; fill-opacity: 0.8; stroke: #0c5da5; stroke-opacity: 0.8"/>
     <use xlink:href="#mcbe7664794" x="324.044307" y="90.947958" style="fill: #0c5da5; fill-opacity: 0.8; stroke: #0c5da5; stroke-opacity: 0.8"/>
     <use xlink:href="#mcbe7664794" x="332.160671" y="93.228677" style="fill: #0c5da5; fill-opacity: 0.8; stroke: #0c5da5; stroke-opacity: 0.8"/>
     <use xlink:href="#mcbe7664794" x="340.277034" y="89.018118" style="fill: #0c5da5; fill-opacity: 0.8; stroke: #0c5da5; stroke-opacity: 0.8"/>
     <use xlink:href="#mcbe7664794" x="348.393398" y="101.474355" style="fill: #0c5da5; fill-opacity: 0.8; stroke: #0c5da5; stroke-opacity: 0.8"/>
     <use xlink:href="#mcbe7664794" x="356.509761" y="113.228832" style="fill: #0c5da5; fill-opacity: 0.8; stroke: #0c5da5; stroke-opacity: 0.8"/>
     <use xlink:href="#mcbe7664794" x="364.626125" y="111.649873" style="fill: #0c5da5; fill-opacity: 0.8; stroke: #0c5da5; stroke-opacity: 0.8"/>
     <use xlink:href="#mcbe7664794" x="372.742489" y="107.790194" style="fill: #0c5da5; fill-opacity: 0.8; stroke: #0c5da5; stroke-opacity: 0.8"/>
     <use xlink:href="#mcbe7664794" x="380.858852" y="120.07099" style="fill: #0c5da5; fill-opacity: 0.8; stroke: #0c5da5; stroke-opacity: 0.8"/>
     <use xlink:href="#mcbe7664794" x="388.975216" y="94.281317" style="fill: #0c5da5; fill-opacity: 0.8; stroke: #0c5da5; stroke-opacity: 0.8"/>
     <use xlink:href="#mcbe7664794" x="397.09158" y="79.368921" style="fill: #0c5da5; fill-opacity: 0.8; stroke: #0c5da5; stroke-opacity: 0.8"/>
     <use xlink:href="#mcbe7664794" x="405.207943" y="100.772595" style="fill: #0c5da5; fill-opacity: 0.8; stroke: #0c5da5; stroke-opacity: 0.8"/>
     <use xlink:href="#mcbe7664794" x="413.324307" y="138.316745" style="fill: #0c5da5; fill-opacity: 0.8; stroke: #0c5da5; stroke-opacity: 0.8"/>
     <use xlink:href="#mcbe7664794" x="421.440671" y="109.369153" style="fill: #0c5da5; fill-opacity: 0.8; stroke: #0c5da5; stroke-opacity: 0.8"/>
     <use xlink:href="#mcbe7664794" x="429.557034" y="107.614754" style="fill: #0c5da5; fill-opacity: 0.8; stroke: #0c5da5; stroke-opacity: 0.8"/>
     <use xlink:href="#mcbe7664794" x="437.673398" y="97.614676" style="fill: #0c5da5; fill-opacity: 0.8; stroke: #0c5da5; stroke-opacity: 0.8"/>
     <use xlink:href="#mcbe7664794" x="445.789761" y="100.421715" style="fill: #0c5da5; fill-opacity: 0.8; stroke: #0c5da5; stroke-opacity: 0.8"/>
     <use xlink:href="#mcbe7664794" x="453.906125" y="99.719956" style="fill: #0c5da5; fill-opacity: 0.8; stroke: #0c5da5; stroke-opacity: 0.8"/>
     <use xlink:href="#mcbe7664794" x="462.022489" y="87.439159" style="fill: #0c5da5; fill-opacity: 0.8; stroke: #0c5da5; stroke-opacity: 0.8"/>
     <use xlink:href="#mcbe7664794" x="470.138852" y="89.895318" style="fill: #0c5da5; fill-opacity: 0.8; stroke: #0c5da5; stroke-opacity: 0.8"/>
    </g>
   </g>
   <g id="PathCollection_2">
    <defs>
     <path id="ma9be72f4ce" d="M -1.118034 1.118034 
L 1.118034 -1.118034 
M -1.118034 -1.118034 
L 1.118034 1.118034 
" style="stroke: #00b945; stroke-opacity: 0.8"/>
    </defs>
    <g clip-path="url(#p4291471faa)">
     <use xlink:href="#ma9be72f4ce" x="64.320671" y="39.368612" style="fill: #00b945; fill-opacity: 0.8; stroke: #00b945; stroke-opacity: 0.8"/>
     <use xlink:href="#ma9be72f4ce" x="72.437034" y="25.157975" style="fill: #00b945; fill-opacity: 0.8; stroke: #00b945; stroke-opacity: 0.8"/>
     <use xlink:href="#ma9be72f4ce" x="80.553398" y="22.526376" style="fill: #00b945; fill-opacity: 0.8; stroke: #00b945; stroke-opacity: 0.8"/>
     <use xlink:href="#ma9be72f4ce" x="88.669761" y="47.965169" style="fill: #00b945; fill-opacity: 0.8; stroke: #00b945; stroke-opacity: 0.8"/>
     <use xlink:href="#ma9be72f4ce" x="96.786125" y="44.10549" style="fill: #00b945; fill-opacity: 0.8; stroke: #00b945; stroke-opacity: 0.8"/>
     <use xlink:href="#ma9be72f4ce" x="104.902489" y="37.263332" style="fill: #00b945; fill-opacity: 0.8; stroke: #00b945; stroke-opacity: 0.8"/>
     <use xlink:href="#ma9be72f4ce" x="113.018852" y="41.824771" style="fill: #00b945; fill-opacity: 0.8; stroke: #00b945; stroke-opacity: 0.8"/>
     <use xlink:href="#ma9be72f4ce" x="121.135216" y="30.421174" style="fill: #00b945; fill-opacity: 0.8; stroke: #00b945; stroke-opacity: 0.8"/>
     <use xlink:href="#ma9be72f4ce" x="129.25158" y="41.649331" style="fill: #00b945; fill-opacity: 0.8; stroke: #00b945; stroke-opacity: 0.8"/>
     <use xlink:href="#ma9be72f4ce" x="137.367943" y="24.807095" style="fill: #00b945; fill-opacity: 0.8; stroke: #00b945; stroke-opacity: 0.8"/>
     <use xlink:href="#ma9be72f4ce" x="145.484307" y="28.842214" style="fill: #00b945; fill-opacity: 0.8; stroke: #00b945; stroke-opacity: 0.8"/>
     <use xlink:href="#ma9be72f4ce" x="153.600671" y="36.561572" style="fill: #00b945; fill-opacity: 0.8; stroke: #00b945; stroke-opacity: 0.8"/>
     <use xlink:href="#ma9be72f4ce" x="161.717034" y="40.772131" style="fill: #00b945; fill-opacity: 0.8; stroke: #00b945; stroke-opacity: 0.8"/>
     <use xlink:href="#ma9be72f4ce" x="169.833398" y="27.087815" style="fill: #00b945; fill-opacity: 0.8; stroke: #00b945; stroke-opacity: 0.8"/>
     <use xlink:href="#ma9be72f4ce" x="177.949761" y="32.701893" style="fill: #00b945; fill-opacity: 0.8; stroke: #00b945; stroke-opacity: 0.8"/>
     <use xlink:href="#ma9be72f4ce" x="186.066125" y="33.579093" style="fill: #00b945; fill-opacity: 0.8; stroke: #00b945; stroke-opacity: 0.8"/>
     <use xlink:href="#ma9be72f4ce" x="194.182489" y="42.701971" style="fill: #00b945; fill-opacity: 0.8; stroke: #00b945; stroke-opacity: 0.8"/>
     <use xlink:href="#ma9be72f4ce" x="202.298852" y="41.298451" style="fill: #00b945; fill-opacity: 0.8; stroke: #00b945; stroke-opacity: 0.8"/>
     <use xlink:href="#ma9be72f4ce" x="210.415216" y="35.333493" style="fill: #00b945; fill-opacity: 0.8; stroke: #00b945; stroke-opacity: 0.8"/>
     <use xlink:href="#ma9be72f4ce" x="218.53158" y="38.666852" style="fill: #00b945; fill-opacity: 0.8; stroke: #00b945; stroke-opacity: 0.8"/>
     <use xlink:href="#ma9be72f4ce" x="226.647943" y="41.123011" style="fill: #00b945; fill-opacity: 0.8; stroke: #00b945; stroke-opacity: 0.8"/>
     <use xlink:href="#ma9be72f4ce" x="234.764307" y="37.438772" style="fill: #00b945; fill-opacity: 0.8; stroke: #00b945; stroke-opacity: 0.8"/>
     <use xlink:href="#ma9be72f4ce" x="242.880671" y="28.140455" style="fill: #00b945; fill-opacity: 0.8; stroke: #00b945; stroke-opacity: 0.8"/>
     <use xlink:href="#ma9be72f4ce" x="250.997034" y="30.070294" style="fill: #00b945; fill-opacity: 0.8; stroke: #00b945; stroke-opacity: 0.8"/>
     <use xlink:href="#ma9be72f4ce" x="259.113398" y="78.140841" style="fill: #00b945; fill-opacity: 0.8; stroke: #00b945; stroke-opacity: 0.8"/>
     <use xlink:href="#ma9be72f4ce" x="267.229761" y="58.316127" style="fill: #00b945; fill-opacity: 0.8; stroke: #00b945; stroke-opacity: 0.8"/>
     <use xlink:href="#ma9be72f4ce" x="275.346125" y="43.228291" style="fill: #00b945; fill-opacity: 0.8; stroke: #00b945; stroke-opacity: 0.8"/>
     <use xlink:href="#ma9be72f4ce" x="283.462489" y="39.719492" style="fill: #00b945; fill-opacity: 0.8; stroke: #00b945; stroke-opacity: 0.8"/>
     <use xlink:href="#ma9be72f4ce" x="291.578852" y="61.474046" style="fill: #00b945; fill-opacity: 0.8; stroke: #00b945; stroke-opacity: 0.8"/>
     <use xlink:href="#ma9be72f4ce" x="299.695216" y="46.21077" style="fill: #00b945; fill-opacity: 0.8; stroke: #00b945; stroke-opacity: 0.8"/>
     <use xlink:href="#ma9be72f4ce" x="307.81158" y="68.842524" style="fill: #00b945; fill-opacity: 0.8; stroke: #00b945; stroke-opacity: 0.8"/>
     <use xlink:href="#ma9be72f4ce" x="315.927943" y="36.386132" style="fill: #00b945; fill-opacity: 0.8; stroke: #00b945; stroke-opacity: 0.8"/>
     <use xlink:href="#ma9be72f4ce" x="324.044307" y="55.158207" style="fill: #00b945; fill-opacity: 0.8; stroke: #00b945; stroke-opacity: 0.8"/>
     <use xlink:href="#ma9be72f4ce" x="332.160671" y="40.421251" style="fill: #00b945; fill-opacity: 0.8; stroke: #00b945; stroke-opacity: 0.8"/>
     <use xlink:href="#ma9be72f4ce" x="340.277034" y="48.666929" style="fill: #00b945; fill-opacity: 0.8; stroke: #00b945; stroke-opacity: 0.8"/>
     <use xlink:href="#ma9be72f4ce" x="348.393398" y="68.316204" style="fill: #00b945; fill-opacity: 0.8; stroke: #00b945; stroke-opacity: 0.8"/>
     <use xlink:href="#ma9be72f4ce" x="356.509761" y="72.877643" style="fill: #00b945; fill-opacity: 0.8; stroke: #00b945; stroke-opacity: 0.8"/>
     <use xlink:href="#ma9be72f4ce" x="364.626125" y="70.070604" style="fill: #00b945; fill-opacity: 0.8; stroke: #00b945; stroke-opacity: 0.8"/>
     <use xlink:href="#ma9be72f4ce" x="372.742489" y="43.93005" style="fill: #00b945; fill-opacity: 0.8; stroke: #00b945; stroke-opacity: 0.8"/>
     <use xlink:href="#ma9be72f4ce" x="380.858852" y="72.000443" style="fill: #00b945; fill-opacity: 0.8; stroke: #00b945; stroke-opacity: 0.8"/>
     <use xlink:href="#ma9be72f4ce" x="388.975216" y="56.737167" style="fill: #00b945; fill-opacity: 0.8; stroke: #00b945; stroke-opacity: 0.8"/>
     <use xlink:href="#ma9be72f4ce" x="397.09158" y="40.596691" style="fill: #00b945; fill-opacity: 0.8; stroke: #00b945; stroke-opacity: 0.8"/>
     <use xlink:href="#ma9be72f4ce" x="405.207943" y="46.21077" style="fill: #00b945; fill-opacity: 0.8; stroke: #00b945; stroke-opacity: 0.8"/>
     <use xlink:href="#ma9be72f4ce" x="413.324307" y="53.930128" style="fill: #00b945; fill-opacity: 0.8; stroke: #00b945; stroke-opacity: 0.8"/>
     <use xlink:href="#ma9be72f4ce" x="421.440671" y="26.912375" style="fill: #00b945; fill-opacity: 0.8; stroke: #00b945; stroke-opacity: 0.8"/>
     <use xlink:href="#ma9be72f4ce" x="429.557034" y="69.895164" style="fill: #00b945; fill-opacity: 0.8; stroke: #00b945; stroke-opacity: 0.8"/>
     <use xlink:href="#ma9be72f4ce" x="437.673398" y="63.930205" style="fill: #00b945; fill-opacity: 0.8; stroke: #00b945; stroke-opacity: 0.8"/>
     <use xlink:href="#ma9be72f4ce" x="445.789761" y="64.281085" style="fill: #00b945; fill-opacity: 0.8; stroke: #00b945; stroke-opacity: 0.8"/>
     <use xlink:href="#ma9be72f4ce" x="453.906125" y="46.03533" style="fill: #00b945; fill-opacity: 0.8; stroke: #00b945; stroke-opacity: 0.8"/>
     <use xlink:href="#ma9be72f4ce" x="462.022489" y="49.017809" style="fill: #00b945; fill-opacity: 0.8; stroke: #00b945; stroke-opacity: 0.8"/>
     <use xlink:href="#ma9be72f4ce" x="470.138852" y="34.280853" style="fill: #00b945; fill-opacity: 0.8; stroke: #00b945; stroke-opacity: 0.8"/>
    </g>
   </g>
   <g id="PathCollection_3">
    <defs>
     <path id="m29220ce45b" d="M 0 1.118034 
C 0.296506 1.118034 0.580908 1.000231 0.790569 0.790569 
C 1.000231 0.580908 1.118034 0.296506 1.118034 0 
C 1.118034 -0.296506 1.000231 -0.580908 0.790569 -0.790569 
C 0.580908 -1.000231 0.296506 -1.118034 0 -1.118034 
C -0.296506 -1.118034 -0.580908 -1.000231 -0.790569 -0.790569 
C -1.000231 -0.580908 -1.118034 -0.296506 -1.118034 0 
C -1.118034 0.296506 -1.000231 0.580908 -0.790569 0.790569 
C -0.580908 1.000231 -0.296506 1.118034 0 1.118034 
z
" style="stroke: #ff9500; stroke-opacity: 0.8"/>
    </defs>
    <g clip-path="url(#p4291471faa)">
     <use xlink:href="#m29220ce45b" x="64.320671" y="123.199669" style="fill: #ff9500; fill-opacity: 0.8; stroke: #ff9500; stroke-opacity: 0.8"/>
     <use xlink:href="#m29220ce45b" x="72.437034" y="115.977391" style="fill: #ff9500; fill-opacity: 0.8; stroke: #ff9500; stroke-opacity: 0.8"/>
     <use xlink:href="#m29220ce45b" x="80.553398" y="115.129432" style="fill: #ff9500; fill-opacity: 0.8; stroke: #ff9500; stroke-opacity: 0.8"/>
     <use xlink:href="#m29220ce45b" x="88.669761" y="130.802067" style="fill: #ff9500; fill-opacity: 0.8; stroke: #ff9500; stroke-opacity: 0.8"/>
     <use xlink:href="#m29220ce45b" x="96.786125" y="128.141228" style="fill: #ff9500; fill-opacity: 0.8; stroke: #ff9500; stroke-opacity: 0.8"/>
     <use xlink:href="#m29220ce45b" x="104.902489" y="120.71427" style="fill: #ff9500; fill-opacity: 0.8; stroke: #ff9500; stroke-opacity: 0.8"/>
     <use xlink:href="#m29220ce45b" x="113.018852" y="123.433589" style="fill: #ff9500; fill-opacity: 0.8; stroke: #ff9500; stroke-opacity: 0.8"/>
     <use xlink:href="#m29220ce45b" x="121.135216" y="122.08855" style="fill: #ff9500; fill-opacity: 0.8; stroke: #ff9500; stroke-opacity: 0.8"/>
     <use xlink:href="#m29220ce45b" x="129.25158" y="118.608991" style="fill: #ff9500; fill-opacity: 0.8; stroke: #ff9500; stroke-opacity: 0.8"/>
     <use xlink:href="#m29220ce45b" x="137.367943" y="125.304949" style="fill: #ff9500; fill-opacity: 0.8; stroke: #ff9500; stroke-opacity: 0.8"/>
     <use xlink:href="#m29220ce45b" x="145.484307" y="125.831269" style="fill: #ff9500; fill-opacity: 0.8; stroke: #ff9500; stroke-opacity: 0.8"/>
     <use xlink:href="#m29220ce45b" x="153.600671" y="126.357589" style="fill: #ff9500; fill-opacity: 0.8; stroke: #ff9500; stroke-opacity: 0.8"/>
     <use xlink:href="#m29220ce45b" x="161.717034" y="134.486306" style="fill: #ff9500; fill-opacity: 0.8; stroke: #ff9500; stroke-opacity: 0.8"/>
     <use xlink:href="#m29220ce45b" x="169.833398" y="117.877991" style="fill: #ff9500; fill-opacity: 0.8; stroke: #ff9500; stroke-opacity: 0.8"/>
     <use xlink:href="#m29220ce45b" x="177.949761" y="121.73767" style="fill: #ff9500; fill-opacity: 0.8; stroke: #ff9500; stroke-opacity: 0.8"/>
     <use xlink:href="#m29220ce45b" x="186.066125" y="123.228909" style="fill: #ff9500; fill-opacity: 0.8; stroke: #ff9500; stroke-opacity: 0.8"/>
     <use xlink:href="#m29220ce45b" x="194.182489" y="125.158749" style="fill: #ff9500; fill-opacity: 0.8; stroke: #ff9500; stroke-opacity: 0.8"/>
     <use xlink:href="#m29220ce45b" x="202.298852" y="126.182149" style="fill: #ff9500; fill-opacity: 0.8; stroke: #ff9500; stroke-opacity: 0.8"/>
     <use xlink:href="#m29220ce45b" x="210.415216" y="121.70843" style="fill: #ff9500; fill-opacity: 0.8; stroke: #ff9500; stroke-opacity: 0.8"/>
     <use xlink:href="#m29220ce45b" x="218.53158" y="122.64411" style="fill: #ff9500; fill-opacity: 0.8; stroke: #ff9500; stroke-opacity: 0.8"/>
     <use xlink:href="#m29220ce45b" x="226.647943" y="138.930785" style="fill: #ff9500; fill-opacity: 0.8; stroke: #ff9500; stroke-opacity: 0.8"/>
     <use xlink:href="#m29220ce45b" x="234.764307" y="148.492263" style="fill: #ff9500; fill-opacity: 0.8; stroke: #ff9500; stroke-opacity: 0.8"/>
     <use xlink:href="#m29220ce45b" x="242.880671" y="122.29323" style="fill: #ff9500; fill-opacity: 0.8; stroke: #ff9500; stroke-opacity: 0.8"/>
     <use xlink:href="#m29220ce45b" x="250.997034" y="143.638424" style="fill: #ff9500; fill-opacity: 0.8; stroke: #ff9500; stroke-opacity: 0.8"/>
     <use xlink:href="#m29220ce45b" x="259.113398" y="173.726376" style="fill: #ff9500; fill-opacity: 0.8; stroke: #ff9500; stroke-opacity: 0.8"/>
     <use xlink:href="#m29220ce45b" x="267.229761" y="155.948461" style="fill: #ff9500; fill-opacity: 0.8; stroke: #ff9500; stroke-opacity: 0.8"/>
     <use xlink:href="#m29220ce45b" x="275.346125" y="140.305065" style="fill: #ff9500; fill-opacity: 0.8; stroke: #ff9500; stroke-opacity: 0.8"/>
     <use xlink:href="#m29220ce45b" x="283.462489" y="148.082903" style="fill: #ff9500; fill-opacity: 0.8; stroke: #ff9500; stroke-opacity: 0.8"/>
     <use xlink:href="#m29220ce45b" x="291.578852" y="150.948422" style="fill: #ff9500; fill-opacity: 0.8; stroke: #ff9500; stroke-opacity: 0.8"/>
     <use xlink:href="#m29220ce45b" x="299.695216" y="164.077179" style="fill: #ff9500; fill-opacity: 0.8; stroke: #ff9500; stroke-opacity: 0.8"/>
     <use xlink:href="#m29220ce45b" x="307.81158" y="150.714502" style="fill: #ff9500; fill-opacity: 0.8; stroke: #ff9500; stroke-opacity: 0.8"/>
     <use xlink:href="#m29220ce45b" x="315.927943" y="143.960064" style="fill: #ff9500; fill-opacity: 0.8; stroke: #ff9500; stroke-opacity: 0.8"/>
     <use xlink:href="#m29220ce45b" x="324.044307" y="149.077063" style="fill: #ff9500; fill-opacity: 0.8; stroke: #ff9500; stroke-opacity: 0.8"/>
     <use xlink:href="#m29220ce45b" x="332.160671" y="143.375264" style="fill: #ff9500; fill-opacity: 0.8; stroke: #ff9500; stroke-opacity: 0.8"/>
     <use xlink:href="#m29220ce45b" x="340.277034" y="153.024462" style="fill: #ff9500; fill-opacity: 0.8; stroke: #ff9500; stroke-opacity: 0.8"/>
     <use xlink:href="#m29220ce45b" x="348.393398" y="147.995183" style="fill: #ff9500; fill-opacity: 0.8; stroke: #ff9500; stroke-opacity: 0.8"/>
     <use xlink:href="#m29220ce45b" x="356.509761" y="154.983541" style="fill: #ff9500; fill-opacity: 0.8; stroke: #ff9500; stroke-opacity: 0.8"/>
     <use xlink:href="#m29220ce45b" x="364.626125" y="150.685262" style="fill: #ff9500; fill-opacity: 0.8; stroke: #ff9500; stroke-opacity: 0.8"/>
     <use xlink:href="#m29220ce45b" x="372.742489" y="148.258343" style="fill: #ff9500; fill-opacity: 0.8; stroke: #ff9500; stroke-opacity: 0.8"/>
     <use xlink:href="#m29220ce45b" x="380.858852" y="167.088898" style="fill: #ff9500; fill-opacity: 0.8; stroke: #ff9500; stroke-opacity: 0.8"/>
     <use xlink:href="#m29220ce45b" x="388.975216" y="147.819743" style="fill: #ff9500; fill-opacity: 0.8; stroke: #ff9500; stroke-opacity: 0.8"/>
     <use xlink:href="#m29220ce45b" x="397.09158" y="143.872344" style="fill: #ff9500; fill-opacity: 0.8; stroke: #ff9500; stroke-opacity: 0.8"/>
     <use xlink:href="#m29220ce45b" x="405.207943" y="148.696943" style="fill: #ff9500; fill-opacity: 0.8; stroke: #ff9500; stroke-opacity: 0.8"/>
     <use xlink:href="#m29220ce45b" x="413.324307" y="152.176502" style="fill: #ff9500; fill-opacity: 0.8; stroke: #ff9500; stroke-opacity: 0.8"/>
     <use xlink:href="#m29220ce45b" x="421.440671" y="133.024307" style="fill: #ff9500; fill-opacity: 0.8; stroke: #ff9500; stroke-opacity: 0.8"/>
     <use xlink:href="#m29220ce45b" x="429.557034" y="149.047823" style="fill: #ff9500; fill-opacity: 0.8; stroke: #ff9500; stroke-opacity: 0.8"/>
     <use xlink:href="#m29220ce45b" x="437.673398" y="142.936664" style="fill: #ff9500; fill-opacity: 0.8; stroke: #ff9500; stroke-opacity: 0.8"/>
     <use xlink:href="#m29220ce45b" x="445.789761" y="164.340339" style="fill: #ff9500; fill-opacity: 0.8; stroke: #ff9500; stroke-opacity: 0.8"/>
     <use xlink:href="#m29220ce45b" x="453.906125" y="148.229103" style="fill: #ff9500; fill-opacity: 0.8; stroke: #ff9500; stroke-opacity: 0.8"/>
     <use xlink:href="#m29220ce45b" x="462.022489" y="136.562346" style="fill: #ff9500; fill-opacity: 0.8; stroke: #ff9500; stroke-opacity: 0.8"/>
     <use xlink:href="#m29220ce45b" x="470.138852" y="144.135504" style="fill: #ff9500; fill-opacity: 0.8; stroke: #ff9500; stroke-opacity: 0.8"/>
    </g>
   </g>
   <g id="matplotlib.axis_1">
    <g id="xtick_1">
     <g id="line2d_1">
      <defs>
       <path id="md9a9038cc0" d="M 0 0 
L 0 -3 
" style="stroke: #000000; stroke-width: 0.5"/>
      </defs>
      <g>
       <use xlink:href="#md9a9038cc0" x="64.320671" y="181.286376" style="stroke: #000000; stroke-width: 0.5"/>
      </g>
     </g>
     <g id="line2d_2">
      <defs>
       <path id="m43e91c0e7c" d="M 0 0 
L 0 3 
" style="stroke: #000000; stroke-width: 0.5"/>
      </defs>
      <g>
       <use xlink:href="#m43e91c0e7c" x="64.320671" y="14.966376" style="stroke: #000000; stroke-width: 0.5"/>
      </g>
     </g>
     <g id="text_1">
      <!-- $\mathdefault{0.0}$ -->
      <g transform="translate(57.955631 191.704874) scale(0.1 -0.1)">
       <defs>
        <path id="CMR17-30" d="M 2688 2025 
C 2688 2416 2682 3080 2413 3591 
C 2176 4039 1798 4198 1466 4198 
C 1158 4198 768 4058 525 3597 
C 269 3118 243 2524 243 2025 
C 243 1661 250 1106 448 619 
C 723 -39 1216 -128 1466 -128 
C 1760 -128 2208 -7 2470 600 
C 2662 1042 2688 1559 2688 2025 
z
M 1466 -26 
C 1056 -26 813 325 723 812 
C 653 1188 653 1738 653 2096 
C 653 2588 653 2997 736 3387 
C 858 3929 1216 4096 1466 4096 
C 1728 4096 2067 3923 2189 3400 
C 2272 3036 2278 2607 2278 2096 
C 2278 1680 2278 1169 2202 792 
C 2067 95 1690 -26 1466 -26 
z
" transform="scale(0.015625)"/>
        <path id="CMMI12-3a" d="M 1178 307 
C 1178 492 1024 619 870 619 
C 685 619 557 466 557 313 
C 557 128 710 0 864 0 
C 1050 0 1178 153 1178 307 
z
" transform="scale(0.015625)"/>
       </defs>
       <use xlink:href="#CMR17-30" transform="scale(0.996264)"/>
       <use xlink:href="#CMMI12-3a" transform="translate(45.690477 0) scale(0.996264)"/>
       <use xlink:href="#CMR17-30" transform="translate(72.787654 0) scale(0.996264)"/>
      </g>
     </g>
    </g>
    <g id="xtick_2">
     <g id="line2d_3">
      <g>
       <use xlink:href="#md9a9038cc0" x="145.484307" y="181.286376" style="stroke: #000000; stroke-width: 0.5"/>
      </g>
     </g>
     <g id="line2d_4">
      <g>
       <use xlink:href="#m43e91c0e7c" x="145.484307" y="14.966376" style="stroke: #000000; stroke-width: 0.5"/>
      </g>
     </g>
     <g id="text_2">
      <!-- $\mathdefault{0.2}$ -->
      <g transform="translate(139.119267 191.704874) scale(0.1 -0.1)">
       <defs>
        <path id="CMR17-32" d="M 2669 989 
L 2554 989 
C 2490 536 2438 459 2413 420 
C 2381 369 1920 369 1830 369 
L 602 369 
C 832 619 1280 1072 1824 1597 
C 2214 1967 2669 2402 2669 3035 
C 2669 3790 2067 4224 1395 4224 
C 691 4224 262 3604 262 3030 
C 262 2780 448 2748 525 2748 
C 589 2748 781 2787 781 3010 
C 781 3207 614 3264 525 3264 
C 486 3264 448 3258 422 3245 
C 544 3790 915 4058 1306 4058 
C 1862 4058 2227 3617 2227 3035 
C 2227 2479 1901 2000 1536 1584 
L 262 146 
L 262 0 
L 2515 0 
L 2669 989 
z
" transform="scale(0.015625)"/>
       </defs>
       <use xlink:href="#CMR17-30" transform="scale(0.996264)"/>
       <use xlink:href="#CMMI12-3a" transform="translate(45.690477 0) scale(0.996264)"/>
       <use xlink:href="#CMR17-32" transform="translate(72.787654 0) scale(0.996264)"/>
      </g>
     </g>
    </g>
    <g id="xtick_3">
     <g id="line2d_5">
      <g>
       <use xlink:href="#md9a9038cc0" x="226.647943" y="181.286376" style="stroke: #000000; stroke-width: 0.5"/>
      </g>
     </g>
     <g id="line2d_6">
      <g>
       <use xlink:href="#m43e91c0e7c" x="226.647943" y="14.966376" style="stroke: #000000; stroke-width: 0.5"/>
      </g>
     </g>
     <g id="text_3">
      <!-- $\mathdefault{0.4}$ -->
      <g transform="translate(220.282904 191.704874) scale(0.1 -0.1)">
       <defs>
        <path id="CMR17-34" d="M 2150 4122 
C 2150 4256 2144 4256 2029 4256 
L 128 1254 
L 128 1088 
L 1779 1088 
L 1779 457 
C 1779 224 1766 160 1318 160 
L 1197 160 
L 1197 0 
C 1402 0 1747 0 1965 0 
C 2182 0 2528 0 2733 0 
L 2733 160 
L 2611 160 
C 2163 160 2150 224 2150 457 
L 2150 1088 
L 2803 1088 
L 2803 1254 
L 2150 1254 
L 2150 4122 
z
M 1798 3703 
L 1798 1254 
L 256 1254 
L 1798 3703 
z
" transform="scale(0.015625)"/>
       </defs>
       <use xlink:href="#CMR17-30" transform="scale(0.996264)"/>
       <use xlink:href="#CMMI12-3a" transform="translate(45.690477 0) scale(0.996264)"/>
       <use xlink:href="#CMR17-34" transform="translate(72.787654 0) scale(0.996264)"/>
      </g>
     </g>
    </g>
    <g id="xtick_4">
     <g id="line2d_7">
      <g>
       <use xlink:href="#md9a9038cc0" x="307.81158" y="181.286376" style="stroke: #000000; stroke-width: 0.5"/>
      </g>
     </g>
     <g id="line2d_8">
      <g>
       <use xlink:href="#m43e91c0e7c" x="307.81158" y="14.966376" style="stroke: #000000; stroke-width: 0.5"/>
      </g>
     </g>
     <g id="text_4">
      <!-- $\mathdefault{0.6}$ -->
      <g transform="translate(301.44654 191.704874) scale(0.1 -0.1)">
       <defs>
        <path id="CMR17-36" d="M 678 2176 
C 678 3690 1395 4032 1811 4032 
C 1946 4032 2272 4009 2400 3776 
C 2298 3776 2106 3776 2106 3553 
C 2106 3381 2246 3323 2336 3323 
C 2394 3323 2566 3348 2566 3560 
C 2566 3954 2246 4179 1805 4179 
C 1043 4179 243 3390 243 1984 
C 243 253 966 -128 1478 -128 
C 2099 -128 2688 427 2688 1283 
C 2688 2081 2170 2662 1517 2662 
C 1126 2662 838 2407 678 1960 
L 678 2176 
z
M 1478 25 
C 691 25 691 1200 691 1436 
C 691 1896 909 2560 1504 2560 
C 1613 2560 1926 2560 2138 2120 
C 2253 1870 2253 1609 2253 1289 
C 2253 944 2253 690 2118 434 
C 1978 171 1773 25 1478 25 
z
" transform="scale(0.015625)"/>
       </defs>
       <use xlink:href="#CMR17-30" transform="scale(0.996264)"/>
       <use xlink:href="#CMMI12-3a" transform="translate(45.690477 0) scale(0.996264)"/>
       <use xlink:href="#CMR17-36" transform="translate(72.787654 0) scale(0.996264)"/>
      </g>
     </g>
    </g>
    <g id="xtick_5">
     <g id="line2d_9">
      <g>
       <use xlink:href="#md9a9038cc0" x="388.975216" y="181.286376" style="stroke: #000000; stroke-width: 0.5"/>
      </g>
     </g>
     <g id="line2d_10">
      <g>
       <use xlink:href="#m43e91c0e7c" x="388.975216" y="14.966376" style="stroke: #000000; stroke-width: 0.5"/>
      </g>
     </g>
     <g id="text_5">
      <!-- $\mathdefault{0.8}$ -->
      <g transform="translate(382.610176 191.704874) scale(0.1 -0.1)">
       <defs>
        <path id="CMR17-38" d="M 1741 2264 
C 2144 2467 2554 2773 2554 3263 
C 2554 3841 1990 4179 1472 4179 
C 890 4179 378 3759 378 3180 
C 378 3021 416 2747 666 2505 
C 730 2442 998 2251 1171 2130 
C 883 1983 211 1634 211 934 
C 211 279 838 -128 1459 -128 
C 2144 -128 2720 362 2720 1010 
C 2720 1590 2330 1857 2074 2029 
L 1741 2264 
z
M 902 2822 
C 851 2854 595 3051 595 3351 
C 595 3739 998 4032 1459 4032 
C 1965 4032 2336 3676 2336 3262 
C 2336 2669 1670 2331 1638 2331 
C 1632 2331 1626 2331 1574 2370 
L 902 2822 
z
M 2080 1519 
C 2176 1449 2483 1240 2483 851 
C 2483 381 2010 25 1472 25 
C 890 25 448 438 448 940 
C 448 1443 838 1862 1280 2060 
L 2080 1519 
z
" transform="scale(0.015625)"/>
       </defs>
       <use xlink:href="#CMR17-30" transform="scale(0.996264)"/>
       <use xlink:href="#CMMI12-3a" transform="translate(45.690477 0) scale(0.996264)"/>
       <use xlink:href="#CMR17-38" transform="translate(72.787654 0) scale(0.996264)"/>
      </g>
     </g>
    </g>
    <g id="xtick_6">
     <g id="line2d_11">
      <g>
       <use xlink:href="#md9a9038cc0" x="470.138852" y="181.286376" style="stroke: #000000; stroke-width: 0.5"/>
      </g>
     </g>
     <g id="line2d_12">
      <g>
       <use xlink:href="#m43e91c0e7c" x="470.138852" y="14.966376" style="stroke: #000000; stroke-width: 0.5"/>
      </g>
     </g>
     <g id="text_6">
      <!-- $\mathdefault{1.0}$ -->
      <g transform="translate(463.773813 191.704874) scale(0.1 -0.1)">
       <defs>
        <path id="CMR17-31" d="M 1702 4058 
C 1702 4192 1696 4192 1606 4192 
C 1357 3916 979 3827 621 3827 
C 602 3827 570 3827 563 3808 
C 557 3795 557 3782 557 3648 
C 755 3648 1088 3686 1344 3839 
L 1344 461 
C 1344 236 1331 160 781 160 
L 589 160 
L 589 0 
C 896 0 1216 0 1523 0 
C 1830 0 2150 0 2458 0 
L 2458 160 
L 2266 160 
C 1715 160 1702 230 1702 458 
L 1702 4058 
z
" transform="scale(0.015625)"/>
       </defs>
       <use xlink:href="#CMR17-31" transform="scale(0.996264)"/>
       <use xlink:href="#CMMI12-3a" transform="translate(45.690477 0) scale(0.996264)"/>
       <use xlink:href="#CMR17-30" transform="translate(72.787654 0) scale(0.996264)"/>
      </g>
     </g>
    </g>
    <g id="xtick_7">
     <g id="line2d_13">
      <defs>
       <path id="mad7be71de5" d="M 0 0 
L 0 -1.5 
" style="stroke: #000000; stroke-width: 0.5"/>
      </defs>
      <g>
       <use xlink:href="#mad7be71de5" x="84.61158" y="181.286376" style="stroke: #000000; stroke-width: 0.5"/>
      </g>
     </g>
     <g id="line2d_14">
      <defs>
       <path id="m08195a2d31" d="M 0 0 
L 0 1.5 
" style="stroke: #000000; stroke-width: 0.5"/>
      </defs>
      <g>
       <use xlink:href="#m08195a2d31" x="84.61158" y="14.966376" style="stroke: #000000; stroke-width: 0.5"/>
      </g>
     </g>
    </g>
    <g id="xtick_8">
     <g id="line2d_15">
      <g>
       <use xlink:href="#mad7be71de5" x="104.902489" y="181.286376" style="stroke: #000000; stroke-width: 0.5"/>
      </g>
     </g>
     <g id="line2d_16">
      <g>
       <use xlink:href="#m08195a2d31" x="104.902489" y="14.966376" style="stroke: #000000; stroke-width: 0.5"/>
      </g>
     </g>
    </g>
    <g id="xtick_9">
     <g id="line2d_17">
      <g>
       <use xlink:href="#mad7be71de5" x="125.193398" y="181.286376" style="stroke: #000000; stroke-width: 0.5"/>
      </g>
     </g>
     <g id="line2d_18">
      <g>
       <use xlink:href="#m08195a2d31" x="125.193398" y="14.966376" style="stroke: #000000; stroke-width: 0.5"/>
      </g>
     </g>
    </g>
    <g id="xtick_10">
     <g id="line2d_19">
      <g>
       <use xlink:href="#mad7be71de5" x="165.775216" y="181.286376" style="stroke: #000000; stroke-width: 0.5"/>
      </g>
     </g>
     <g id="line2d_20">
      <g>
       <use xlink:href="#m08195a2d31" x="165.775216" y="14.966376" style="stroke: #000000; stroke-width: 0.5"/>
      </g>
     </g>
    </g>
    <g id="xtick_11">
     <g id="line2d_21">
      <g>
       <use xlink:href="#mad7be71de5" x="186.066125" y="181.286376" style="stroke: #000000; stroke-width: 0.5"/>
      </g>
     </g>
     <g id="line2d_22">
      <g>
       <use xlink:href="#m08195a2d31" x="186.066125" y="14.966376" style="stroke: #000000; stroke-width: 0.5"/>
      </g>
     </g>
    </g>
    <g id="xtick_12">
     <g id="line2d_23">
      <g>
       <use xlink:href="#mad7be71de5" x="206.357034" y="181.286376" style="stroke: #000000; stroke-width: 0.5"/>
      </g>
     </g>
     <g id="line2d_24">
      <g>
       <use xlink:href="#m08195a2d31" x="206.357034" y="14.966376" style="stroke: #000000; stroke-width: 0.5"/>
      </g>
     </g>
    </g>
    <g id="xtick_13">
     <g id="line2d_25">
      <g>
       <use xlink:href="#mad7be71de5" x="246.938852" y="181.286376" style="stroke: #000000; stroke-width: 0.5"/>
      </g>
     </g>
     <g id="line2d_26">
      <g>
       <use xlink:href="#m08195a2d31" x="246.938852" y="14.966376" style="stroke: #000000; stroke-width: 0.5"/>
      </g>
     </g>
    </g>
    <g id="xtick_14">
     <g id="line2d_27">
      <g>
       <use xlink:href="#mad7be71de5" x="267.229761" y="181.286376" style="stroke: #000000; stroke-width: 0.5"/>
      </g>
     </g>
     <g id="line2d_28">
      <g>
       <use xlink:href="#m08195a2d31" x="267.229761" y="14.966376" style="stroke: #000000; stroke-width: 0.5"/>
      </g>
     </g>
    </g>
    <g id="xtick_15">
     <g id="line2d_29">
      <g>
       <use xlink:href="#mad7be71de5" x="287.520671" y="181.286376" style="stroke: #000000; stroke-width: 0.5"/>
      </g>
     </g>
     <g id="line2d_30">
      <g>
       <use xlink:href="#m08195a2d31" x="287.520671" y="14.966376" style="stroke: #000000; stroke-width: 0.5"/>
      </g>
     </g>
    </g>
    <g id="xtick_16">
     <g id="line2d_31">
      <g>
       <use xlink:href="#mad7be71de5" x="328.102489" y="181.286376" style="stroke: #000000; stroke-width: 0.5"/>
      </g>
     </g>
     <g id="line2d_32">
      <g>
       <use xlink:href="#m08195a2d31" x="328.102489" y="14.966376" style="stroke: #000000; stroke-width: 0.5"/>
      </g>
     </g>
    </g>
    <g id="xtick_17">
     <g id="line2d_33">
      <g>
       <use xlink:href="#mad7be71de5" x="348.393398" y="181.286376" style="stroke: #000000; stroke-width: 0.5"/>
      </g>
     </g>
     <g id="line2d_34">
      <g>
       <use xlink:href="#m08195a2d31" x="348.393398" y="14.966376" style="stroke: #000000; stroke-width: 0.5"/>
      </g>
     </g>
    </g>
    <g id="xtick_18">
     <g id="line2d_35">
      <g>
       <use xlink:href="#mad7be71de5" x="368.684307" y="181.286376" style="stroke: #000000; stroke-width: 0.5"/>
      </g>
     </g>
     <g id="line2d_36">
      <g>
       <use xlink:href="#m08195a2d31" x="368.684307" y="14.966376" style="stroke: #000000; stroke-width: 0.5"/>
      </g>
     </g>
    </g>
    <g id="xtick_19">
     <g id="line2d_37">
      <g>
       <use xlink:href="#mad7be71de5" x="409.266125" y="181.286376" style="stroke: #000000; stroke-width: 0.5"/>
      </g>
     </g>
     <g id="line2d_38">
      <g>
       <use xlink:href="#m08195a2d31" x="409.266125" y="14.966376" style="stroke: #000000; stroke-width: 0.5"/>
      </g>
     </g>
    </g>
    <g id="xtick_20">
     <g id="line2d_39">
      <g>
       <use xlink:href="#mad7be71de5" x="429.557034" y="181.286376" style="stroke: #000000; stroke-width: 0.5"/>
      </g>
     </g>
     <g id="line2d_40">
      <g>
       <use xlink:href="#m08195a2d31" x="429.557034" y="14.966376" style="stroke: #000000; stroke-width: 0.5"/>
      </g>
     </g>
    </g>
    <g id="xtick_21">
     <g id="line2d_41">
      <g>
       <use xlink:href="#mad7be71de5" x="449.847943" y="181.286376" style="stroke: #000000; stroke-width: 0.5"/>
      </g>
     </g>
     <g id="line2d_42">
      <g>
       <use xlink:href="#m08195a2d31" x="449.847943" y="14.966376" style="stroke: #000000; stroke-width: 0.5"/>
      </g>
     </g>
    </g>
    <g id="text_7">
     <!-- $t$ -->
     <g transform="translate(265.43095 204.560551) scale(0.1 -0.1)">
      <defs>
       <path id="CMMI12-74" d="M 1286 2566 
L 1875 2566 
C 1997 2566 2061 2566 2061 2681 
C 2061 2752 2022 2752 1894 2752 
L 1331 2752 
L 1568 3692 
C 1594 3781 1594 3794 1594 3840 
C 1594 3943 1510 4000 1427 4000 
C 1376 4000 1229 3981 1178 3775 
L 928 2752 
L 326 2752 
C 198 2752 141 2752 141 2630 
C 141 2566 186 2566 307 2566 
L 877 2566 
L 454 881 
C 403 658 384 594 384 511 
C 384 211 595 -64 954 -64 
C 1600 -64 1946 868 1946 912 
C 1946 951 1920 970 1882 970 
C 1869 970 1843 970 1830 944 
C 1824 938 1818 931 1773 829 
C 1638 511 1344 64 973 64 
C 781 64 768 224 768 364 
C 768 370 768 492 787 568 
L 1286 2566 
z
" transform="scale(0.015625)"/>
      </defs>
      <use xlink:href="#CMMI12-74" transform="scale(0.996264)"/>
     </g>
    </g>
   </g>
   <g id="matplotlib.axis_2">
    <g id="ytick_1">
     <g id="line2d_43">
      <defs>
       <path id="m3b963ad11e" d="M 0 0 
L 3 0 
" style="stroke: #000000; stroke-width: 0.5"/>
      </defs>
      <g>
       <use xlink:href="#m3b963ad11e" x="44.029761" y="164.632738" style="stroke: #000000; stroke-width: 0.5"/>
      </g>
     </g>
     <g id="line2d_44">
      <defs>
       <path id="m33f6b7ec8f" d="M 0 0 
L -3 0 
" style="stroke: #000000; stroke-width: 0.5"/>
      </defs>
      <g>
       <use xlink:href="#m33f6b7ec8f" x="490.429761" y="164.632738" style="stroke: #000000; stroke-width: 0.5"/>
      </g>
     </g>
     <g id="text_8">
      <!-- $\mathdefault{0.8925}$ -->
      <g transform="translate(12.855677 168.091988) scale(0.1 -0.1)">
       <defs>
        <path id="CMR17-39" d="M 2253 1864 
C 2253 464 1670 31 1190 31 
C 1043 31 685 31 538 294 
C 704 268 826 357 826 518 
C 826 692 685 749 595 749 
C 538 749 365 723 365 506 
C 365 71 742 -128 1203 -128 
C 1939 -128 2688 674 2688 2073 
C 2688 3817 1971 4179 1485 4179 
C 851 4179 243 3628 243 2778 
C 243 1991 762 1408 1414 1408 
C 1952 1408 2189 1903 2253 2112 
L 2253 1864 
z
M 1427 1510 
C 1254 1510 1011 1542 813 1922 
C 678 2169 678 2461 678 2771 
C 678 3146 678 3405 858 3684 
C 947 3817 1114 4032 1485 4032 
C 2240 4032 2240 2885 2240 2632 
C 2240 2182 2035 1510 1427 1510 
z
" transform="scale(0.015625)"/>
        <path id="CMR17-35" d="M 730 3692 
C 794 3666 1056 3584 1325 3584 
C 1920 3584 2246 3911 2432 4100 
C 2432 4157 2432 4192 2394 4192 
C 2387 4192 2374 4192 2323 4163 
C 2099 4058 1837 3973 1517 3973 
C 1325 3973 1037 3999 723 4139 
C 653 4171 640 4171 634 4171 
C 602 4171 595 4164 595 4037 
L 595 2203 
C 595 2089 595 2057 659 2057 
C 691 2057 704 2070 736 2114 
C 941 2401 1222 2522 1542 2522 
C 1766 2522 2246 2382 2246 1289 
C 2246 1085 2246 715 2054 421 
C 1894 159 1645 25 1370 25 
C 947 25 518 320 403 814 
C 429 807 480 795 506 795 
C 589 795 749 840 749 1038 
C 749 1210 627 1280 506 1280 
C 358 1280 262 1190 262 1011 
C 262 454 704 -128 1382 -128 
C 2042 -128 2669 440 2669 1264 
C 2669 2030 2170 2624 1549 2624 
C 1222 2624 947 2503 730 2274 
L 730 3692 
z
" transform="scale(0.015625)"/>
       </defs>
       <use xlink:href="#CMR17-30" transform="scale(0.996264)"/>
       <use xlink:href="#CMMI12-3a" transform="translate(45.690477 0) scale(0.996264)"/>
       <use xlink:href="#CMR17-38" transform="translate(72.787654 0) scale(0.996264)"/>
       <use xlink:href="#CMR17-39" transform="translate(118.478131 0) scale(0.996264)"/>
       <use xlink:href="#CMR17-32" transform="translate(164.168608 0) scale(0.996264)"/>
       <use xlink:href="#CMR17-35" transform="translate(209.859086 0) scale(0.996264)"/>
      </g>
     </g>
    </g>
    <g id="ytick_2">
     <g id="line2d_45">
      <g>
       <use xlink:href="#m3b963ad11e" x="44.029761" y="142.702744" style="stroke: #000000; stroke-width: 0.5"/>
      </g>
     </g>
     <g id="line2d_46">
      <g>
       <use xlink:href="#m33f6b7ec8f" x="490.429761" y="142.702744" style="stroke: #000000; stroke-width: 0.5"/>
      </g>
     </g>
     <g id="text_9">
      <!-- $\mathdefault{0.8950}$ -->
      <g transform="translate(12.855677 146.161993) scale(0.1 -0.1)">
       <use xlink:href="#CMR17-30" transform="scale(0.996264)"/>
       <use xlink:href="#CMMI12-3a" transform="translate(45.690477 0) scale(0.996264)"/>
       <use xlink:href="#CMR17-38" transform="translate(72.787654 0) scale(0.996264)"/>
       <use xlink:href="#CMR17-39" transform="translate(118.478131 0) scale(0.996264)"/>
       <use xlink:href="#CMR17-35" transform="translate(164.168608 0) scale(0.996264)"/>
       <use xlink:href="#CMR17-30" transform="translate(209.859086 0) scale(0.996264)"/>
      </g>
     </g>
    </g>
    <g id="ytick_3">
     <g id="line2d_47">
      <g>
       <use xlink:href="#m3b963ad11e" x="44.029761" y="120.77275" style="stroke: #000000; stroke-width: 0.5"/>
      </g>
     </g>
     <g id="line2d_48">
      <g>
       <use xlink:href="#m33f6b7ec8f" x="490.429761" y="120.77275" style="stroke: #000000; stroke-width: 0.5"/>
      </g>
     </g>
     <g id="text_10">
      <!-- $\mathdefault{0.8975}$ -->
      <g transform="translate(12.855677 124.231999) scale(0.1 -0.1)">
       <defs>
        <path id="CMR17-37" d="M 2886 3941 
L 2886 4081 
L 1382 4081 
C 634 4081 621 4165 595 4288 
L 480 4288 
L 294 3094 
L 410 3094 
C 429 3215 474 3540 550 3661 
C 589 3712 1062 3712 1171 3712 
L 2579 3712 
L 1869 2661 
C 1395 1954 1069 999 1069 165 
C 1069 89 1069 -128 1299 -128 
C 1530 -128 1530 89 1530 171 
L 1530 465 
C 1530 1508 1709 2196 2003 2636 
L 2886 3941 
z
" transform="scale(0.015625)"/>
       </defs>
       <use xlink:href="#CMR17-30" transform="scale(0.996264)"/>
       <use xlink:href="#CMMI12-3a" transform="translate(45.690477 0) scale(0.996264)"/>
       <use xlink:href="#CMR17-38" transform="translate(72.787654 0) scale(0.996264)"/>
       <use xlink:href="#CMR17-39" transform="translate(118.478131 0) scale(0.996264)"/>
       <use xlink:href="#CMR17-37" transform="translate(164.168608 0) scale(0.996264)"/>
       <use xlink:href="#CMR17-35" transform="translate(209.859086 0) scale(0.996264)"/>
      </g>
     </g>
    </g>
    <g id="ytick_4">
     <g id="line2d_49">
      <g>
       <use xlink:href="#m3b963ad11e" x="44.029761" y="98.842756" style="stroke: #000000; stroke-width: 0.5"/>
      </g>
     </g>
     <g id="line2d_50">
      <g>
       <use xlink:href="#m33f6b7ec8f" x="490.429761" y="98.842756" style="stroke: #000000; stroke-width: 0.5"/>
      </g>
     </g>
     <g id="text_11">
      <!-- $\mathdefault{0.9000}$ -->
      <g transform="translate(12.855677 102.302005) scale(0.1 -0.1)">
       <use xlink:href="#CMR17-30" transform="scale(0.996264)"/>
       <use xlink:href="#CMMI12-3a" transform="translate(45.690477 0) scale(0.996264)"/>
       <use xlink:href="#CMR17-39" transform="translate(72.787654 0) scale(0.996264)"/>
       <use xlink:href="#CMR17-30" transform="translate(118.478131 0) scale(0.996264)"/>
       <use xlink:href="#CMR17-30" transform="translate(164.168608 0) scale(0.996264)"/>
       <use xlink:href="#CMR17-30" transform="translate(209.859086 0) scale(0.996264)"/>
      </g>
     </g>
    </g>
    <g id="ytick_5">
     <g id="line2d_51">
      <g>
       <use xlink:href="#m3b963ad11e" x="44.029761" y="76.912762" style="stroke: #000000; stroke-width: 0.5"/>
      </g>
     </g>
     <g id="line2d_52">
      <g>
       <use xlink:href="#m33f6b7ec8f" x="490.429761" y="76.912762" style="stroke: #000000; stroke-width: 0.5"/>
      </g>
     </g>
     <g id="text_12">
      <!-- $\mathdefault{0.9025}$ -->
      <g transform="translate(12.855677 80.372011) scale(0.1 -0.1)">
       <use xlink:href="#CMR17-30" transform="scale(0.996264)"/>
       <use xlink:href="#CMMI12-3a" transform="translate(45.690477 0) scale(0.996264)"/>
       <use xlink:href="#CMR17-39" transform="translate(72.787654 0) scale(0.996264)"/>
       <use xlink:href="#CMR17-30" transform="translate(118.478131 0) scale(0.996264)"/>
       <use xlink:href="#CMR17-32" transform="translate(164.168608 0) scale(0.996264)"/>
       <use xlink:href="#CMR17-35" transform="translate(209.859086 0) scale(0.996264)"/>
      </g>
     </g>
    </g>
    <g id="ytick_6">
     <g id="line2d_53">
      <g>
       <use xlink:href="#m3b963ad11e" x="44.029761" y="54.982768" style="stroke: #000000; stroke-width: 0.5"/>
      </g>
     </g>
     <g id="line2d_54">
      <g>
       <use xlink:href="#m33f6b7ec8f" x="490.429761" y="54.982768" style="stroke: #000000; stroke-width: 0.5"/>
      </g>
     </g>
     <g id="text_13">
      <!-- $\mathdefault{0.9050}$ -->
      <g transform="translate(12.855677 58.442017) scale(0.1 -0.1)">
       <use xlink:href="#CMR17-30" transform="scale(0.996264)"/>
       <use xlink:href="#CMMI12-3a" transform="translate(45.690477 0) scale(0.996264)"/>
       <use xlink:href="#CMR17-39" transform="translate(72.787654 0) scale(0.996264)"/>
       <use xlink:href="#CMR17-30" transform="translate(118.478131 0) scale(0.996264)"/>
       <use xlink:href="#CMR17-35" transform="translate(164.168608 0) scale(0.996264)"/>
       <use xlink:href="#CMR17-30" transform="translate(209.859086 0) scale(0.996264)"/>
      </g>
     </g>
    </g>
    <g id="ytick_7">
     <g id="line2d_55">
      <g>
       <use xlink:href="#m3b963ad11e" x="44.029761" y="33.052773" style="stroke: #000000; stroke-width: 0.5"/>
      </g>
     </g>
     <g id="line2d_56">
      <g>
       <use xlink:href="#m33f6b7ec8f" x="490.429761" y="33.052773" style="stroke: #000000; stroke-width: 0.5"/>
      </g>
     </g>
     <g id="text_14">
      <!-- $\mathdefault{0.9075}$ -->
      <g transform="translate(12.855677 36.512022) scale(0.1 -0.1)">
       <use xlink:href="#CMR17-30" transform="scale(0.996264)"/>
       <use xlink:href="#CMMI12-3a" transform="translate(45.690477 0) scale(0.996264)"/>
       <use xlink:href="#CMR17-39" transform="translate(72.787654 0) scale(0.996264)"/>
       <use xlink:href="#CMR17-30" transform="translate(118.478131 0) scale(0.996264)"/>
       <use xlink:href="#CMR17-37" transform="translate(164.168608 0) scale(0.996264)"/>
       <use xlink:href="#CMR17-35" transform="translate(209.859086 0) scale(0.996264)"/>
      </g>
     </g>
    </g>
    <g id="ytick_8">
     <g id="line2d_57">
      <defs>
       <path id="me34df80a93" d="M 0 0 
L 1.5 0 
" style="stroke: #000000; stroke-width: 0.5"/>
      </defs>
      <g>
       <use xlink:href="#me34df80a93" x="44.029761" y="177.790735" style="stroke: #000000; stroke-width: 0.5"/>
      </g>
     </g>
     <g id="line2d_58">
      <defs>
       <path id="m71775c410b" d="M 0 0 
L -1.5 0 
" style="stroke: #000000; stroke-width: 0.5"/>
      </defs>
      <g>
       <use xlink:href="#m71775c410b" x="490.429761" y="177.790735" style="stroke: #000000; stroke-width: 0.5"/>
      </g>
     </g>
    </g>
    <g id="ytick_9">
     <g id="line2d_59">
      <g>
       <use xlink:href="#me34df80a93" x="44.029761" y="173.404736" style="stroke: #000000; stroke-width: 0.5"/>
      </g>
     </g>
     <g id="line2d_60">
      <g>
       <use xlink:href="#m71775c410b" x="490.429761" y="173.404736" style="stroke: #000000; stroke-width: 0.5"/>
      </g>
     </g>
    </g>
    <g id="ytick_10">
     <g id="line2d_61">
      <g>
       <use xlink:href="#me34df80a93" x="44.029761" y="169.018737" style="stroke: #000000; stroke-width: 0.5"/>
      </g>
     </g>
     <g id="line2d_62">
      <g>
       <use xlink:href="#m71775c410b" x="490.429761" y="169.018737" style="stroke: #000000; stroke-width: 0.5"/>
      </g>
     </g>
    </g>
    <g id="ytick_11">
     <g id="line2d_63">
      <g>
       <use xlink:href="#me34df80a93" x="44.029761" y="160.24674" style="stroke: #000000; stroke-width: 0.5"/>
      </g>
     </g>
     <g id="line2d_64">
      <g>
       <use xlink:href="#m71775c410b" x="490.429761" y="160.24674" style="stroke: #000000; stroke-width: 0.5"/>
      </g>
     </g>
    </g>
    <g id="ytick_12">
     <g id="line2d_65">
      <g>
       <use xlink:href="#me34df80a93" x="44.029761" y="155.860741" style="stroke: #000000; stroke-width: 0.5"/>
      </g>
     </g>
     <g id="line2d_66">
      <g>
       <use xlink:href="#m71775c410b" x="490.429761" y="155.860741" style="stroke: #000000; stroke-width: 0.5"/>
      </g>
     </g>
    </g>
    <g id="ytick_13">
     <g id="line2d_67">
      <g>
       <use xlink:href="#me34df80a93" x="44.029761" y="151.474742" style="stroke: #000000; stroke-width: 0.5"/>
      </g>
     </g>
     <g id="line2d_68">
      <g>
       <use xlink:href="#m71775c410b" x="490.429761" y="151.474742" style="stroke: #000000; stroke-width: 0.5"/>
      </g>
     </g>
    </g>
    <g id="ytick_14">
     <g id="line2d_69">
      <g>
       <use xlink:href="#me34df80a93" x="44.029761" y="147.088743" style="stroke: #000000; stroke-width: 0.5"/>
      </g>
     </g>
     <g id="line2d_70">
      <g>
       <use xlink:href="#m71775c410b" x="490.429761" y="147.088743" style="stroke: #000000; stroke-width: 0.5"/>
      </g>
     </g>
    </g>
    <g id="ytick_15">
     <g id="line2d_71">
      <g>
       <use xlink:href="#me34df80a93" x="44.029761" y="138.316745" style="stroke: #000000; stroke-width: 0.5"/>
      </g>
     </g>
     <g id="line2d_72">
      <g>
       <use xlink:href="#m71775c410b" x="490.429761" y="138.316745" style="stroke: #000000; stroke-width: 0.5"/>
      </g>
     </g>
    </g>
    <g id="ytick_16">
     <g id="line2d_73">
      <g>
       <use xlink:href="#me34df80a93" x="44.029761" y="133.930747" style="stroke: #000000; stroke-width: 0.5"/>
      </g>
     </g>
     <g id="line2d_74">
      <g>
       <use xlink:href="#m71775c410b" x="490.429761" y="133.930747" style="stroke: #000000; stroke-width: 0.5"/>
      </g>
     </g>
    </g>
    <g id="ytick_17">
     <g id="line2d_75">
      <g>
       <use xlink:href="#me34df80a93" x="44.029761" y="129.544748" style="stroke: #000000; stroke-width: 0.5"/>
      </g>
     </g>
     <g id="line2d_76">
      <g>
       <use xlink:href="#m71775c410b" x="490.429761" y="129.544748" style="stroke: #000000; stroke-width: 0.5"/>
      </g>
     </g>
    </g>
    <g id="ytick_18">
     <g id="line2d_77">
      <g>
       <use xlink:href="#me34df80a93" x="44.029761" y="125.158749" style="stroke: #000000; stroke-width: 0.5"/>
      </g>
     </g>
     <g id="line2d_78">
      <g>
       <use xlink:href="#m71775c410b" x="490.429761" y="125.158749" style="stroke: #000000; stroke-width: 0.5"/>
      </g>
     </g>
    </g>
    <g id="ytick_19">
     <g id="line2d_79">
      <g>
       <use xlink:href="#me34df80a93" x="44.029761" y="116.386751" style="stroke: #000000; stroke-width: 0.5"/>
      </g>
     </g>
     <g id="line2d_80">
      <g>
       <use xlink:href="#m71775c410b" x="490.429761" y="116.386751" style="stroke: #000000; stroke-width: 0.5"/>
      </g>
     </g>
    </g>
    <g id="ytick_20">
     <g id="line2d_81">
      <g>
       <use xlink:href="#me34df80a93" x="44.029761" y="112.000752" style="stroke: #000000; stroke-width: 0.5"/>
      </g>
     </g>
     <g id="line2d_82">
      <g>
       <use xlink:href="#m71775c410b" x="490.429761" y="112.000752" style="stroke: #000000; stroke-width: 0.5"/>
      </g>
     </g>
    </g>
    <g id="ytick_21">
     <g id="line2d_83">
      <g>
       <use xlink:href="#me34df80a93" x="44.029761" y="107.614754" style="stroke: #000000; stroke-width: 0.5"/>
      </g>
     </g>
     <g id="line2d_84">
      <g>
       <use xlink:href="#m71775c410b" x="490.429761" y="107.614754" style="stroke: #000000; stroke-width: 0.5"/>
      </g>
     </g>
    </g>
    <g id="ytick_22">
     <g id="line2d_85">
      <g>
       <use xlink:href="#me34df80a93" x="44.029761" y="103.228755" style="stroke: #000000; stroke-width: 0.5"/>
      </g>
     </g>
     <g id="line2d_86">
      <g>
       <use xlink:href="#m71775c410b" x="490.429761" y="103.228755" style="stroke: #000000; stroke-width: 0.5"/>
      </g>
     </g>
    </g>
    <g id="ytick_23">
     <g id="line2d_87">
      <g>
       <use xlink:href="#me34df80a93" x="44.029761" y="94.456757" style="stroke: #000000; stroke-width: 0.5"/>
      </g>
     </g>
     <g id="line2d_88">
      <g>
       <use xlink:href="#m71775c410b" x="490.429761" y="94.456757" style="stroke: #000000; stroke-width: 0.5"/>
      </g>
     </g>
    </g>
    <g id="ytick_24">
     <g id="line2d_89">
      <g>
       <use xlink:href="#me34df80a93" x="44.029761" y="90.070758" style="stroke: #000000; stroke-width: 0.5"/>
      </g>
     </g>
     <g id="line2d_90">
      <g>
       <use xlink:href="#m71775c410b" x="490.429761" y="90.070758" style="stroke: #000000; stroke-width: 0.5"/>
      </g>
     </g>
    </g>
    <g id="ytick_25">
     <g id="line2d_91">
      <g>
       <use xlink:href="#me34df80a93" x="44.029761" y="85.684759" style="stroke: #000000; stroke-width: 0.5"/>
      </g>
     </g>
     <g id="line2d_92">
      <g>
       <use xlink:href="#m71775c410b" x="490.429761" y="85.684759" style="stroke: #000000; stroke-width: 0.5"/>
      </g>
     </g>
    </g>
    <g id="ytick_26">
     <g id="line2d_93">
      <g>
       <use xlink:href="#me34df80a93" x="44.029761" y="81.298761" style="stroke: #000000; stroke-width: 0.5"/>
      </g>
     </g>
     <g id="line2d_94">
      <g>
       <use xlink:href="#m71775c410b" x="490.429761" y="81.298761" style="stroke: #000000; stroke-width: 0.5"/>
      </g>
     </g>
    </g>
    <g id="ytick_27">
     <g id="line2d_95">
      <g>
       <use xlink:href="#me34df80a93" x="44.029761" y="72.526763" style="stroke: #000000; stroke-width: 0.5"/>
      </g>
     </g>
     <g id="line2d_96">
      <g>
       <use xlink:href="#m71775c410b" x="490.429761" y="72.526763" style="stroke: #000000; stroke-width: 0.5"/>
      </g>
     </g>
    </g>
    <g id="ytick_28">
     <g id="line2d_97">
      <g>
       <use xlink:href="#me34df80a93" x="44.029761" y="68.140764" style="stroke: #000000; stroke-width: 0.5"/>
      </g>
     </g>
     <g id="line2d_98">
      <g>
       <use xlink:href="#m71775c410b" x="490.429761" y="68.140764" style="stroke: #000000; stroke-width: 0.5"/>
      </g>
     </g>
    </g>
    <g id="ytick_29">
     <g id="line2d_99">
      <g>
       <use xlink:href="#me34df80a93" x="44.029761" y="63.754765" style="stroke: #000000; stroke-width: 0.5"/>
      </g>
     </g>
     <g id="line2d_100">
      <g>
       <use xlink:href="#m71775c410b" x="490.429761" y="63.754765" style="stroke: #000000; stroke-width: 0.5"/>
      </g>
     </g>
    </g>
    <g id="ytick_30">
     <g id="line2d_101">
      <g>
       <use xlink:href="#me34df80a93" x="44.029761" y="59.368766" style="stroke: #000000; stroke-width: 0.5"/>
      </g>
     </g>
     <g id="line2d_102">
      <g>
       <use xlink:href="#m71775c410b" x="490.429761" y="59.368766" style="stroke: #000000; stroke-width: 0.5"/>
      </g>
     </g>
    </g>
    <g id="ytick_31">
     <g id="line2d_103">
      <g>
       <use xlink:href="#me34df80a93" x="44.029761" y="50.596769" style="stroke: #000000; stroke-width: 0.5"/>
      </g>
     </g>
     <g id="line2d_104">
      <g>
       <use xlink:href="#m71775c410b" x="490.429761" y="50.596769" style="stroke: #000000; stroke-width: 0.5"/>
      </g>
     </g>
    </g>
    <g id="ytick_32">
     <g id="line2d_105">
      <g>
       <use xlink:href="#me34df80a93" x="44.029761" y="46.21077" style="stroke: #000000; stroke-width: 0.5"/>
      </g>
     </g>
     <g id="line2d_106">
      <g>
       <use xlink:href="#m71775c410b" x="490.429761" y="46.21077" style="stroke: #000000; stroke-width: 0.5"/>
      </g>
     </g>
    </g>
    <g id="ytick_33">
     <g id="line2d_107">
      <g>
       <use xlink:href="#me34df80a93" x="44.029761" y="41.824771" style="stroke: #000000; stroke-width: 0.5"/>
      </g>
     </g>
     <g id="line2d_108">
      <g>
       <use xlink:href="#m71775c410b" x="490.429761" y="41.824771" style="stroke: #000000; stroke-width: 0.5"/>
      </g>
     </g>
    </g>
    <g id="ytick_34">
     <g id="line2d_109">
      <g>
       <use xlink:href="#me34df80a93" x="44.029761" y="37.438772" style="stroke: #000000; stroke-width: 0.5"/>
      </g>
     </g>
     <g id="line2d_110">
      <g>
       <use xlink:href="#m71775c410b" x="490.429761" y="37.438772" style="stroke: #000000; stroke-width: 0.5"/>
      </g>
     </g>
    </g>
    <g id="ytick_35">
     <g id="line2d_111">
      <g>
       <use xlink:href="#me34df80a93" x="44.029761" y="28.666774" style="stroke: #000000; stroke-width: 0.5"/>
      </g>
     </g>
     <g id="line2d_112">
      <g>
       <use xlink:href="#m71775c410b" x="490.429761" y="28.666774" style="stroke: #000000; stroke-width: 0.5"/>
      </g>
     </g>
    </g>
    <g id="ytick_36">
     <g id="line2d_113">
      <g>
       <use xlink:href="#me34df80a93" x="44.029761" y="24.280776" style="stroke: #000000; stroke-width: 0.5"/>
      </g>
     </g>
     <g id="line2d_114">
      <g>
       <use xlink:href="#m71775c410b" x="490.429761" y="24.280776" style="stroke: #000000; stroke-width: 0.5"/>
      </g>
     </g>
    </g>
    <g id="ytick_37">
     <g id="line2d_115">
      <g>
       <use xlink:href="#me34df80a93" x="44.029761" y="19.894777" style="stroke: #000000; stroke-width: 0.5"/>
      </g>
     </g>
     <g id="line2d_116">
      <g>
       <use xlink:href="#m71775c410b" x="490.429761" y="19.894777" style="stroke: #000000; stroke-width: 0.5"/>
      </g>
     </g>
    </g>
    <g id="ytick_38">
     <g id="line2d_117">
      <g>
       <use xlink:href="#me34df80a93" x="44.029761" y="15.508778" style="stroke: #000000; stroke-width: 0.5"/>
      </g>
     </g>
     <g id="line2d_118">
      <g>
       <use xlink:href="#m71775c410b" x="490.429761" y="15.508778" style="stroke: #000000; stroke-width: 0.5"/>
      </g>
     </g>
    </g>
    <g id="text_15">
     <!-- Classification accuracy -->
     <g transform="translate(6.918498 147.593744) rotate(-90) scale(0.1 -0.1)">
      <defs>
       <path id="CMR17-43" d="M 3974 4289 
C 3974 4403 3968 4410 3930 4410 
C 3904 4410 3898 4403 3853 4327 
L 3571 3792 
C 3258 4187 2874 4416 2381 4416 
C 1286 4416 294 3456 294 2148 
C 294 826 1286 -128 2387 -128 
C 3366 -128 3974 730 3974 1461 
C 3974 1524 3974 1550 3917 1550 
C 3866 1550 3866 1531 3859 1474 
C 3808 585 3168 38 2477 38 
C 1824 38 781 495 781 2147 
C 781 3805 1843 4250 2464 4250 
C 3187 4250 3712 3628 3834 2745 
C 3846 2668 3846 2655 3904 2655 
C 3974 2655 3974 2668 3974 2783 
L 3974 4289 
z
" transform="scale(0.015625)"/>
       <path id="CMR17-6c" d="M 979 4396 
L 218 4326 
L 218 4160 
C 595 4160 653 4122 653 3817 
L 653 426 
C 653 184 627 153 218 153 
L 218 -13 
C 371 0 653 0 813 0 
C 979 0 1261 0 1414 -13 
L 1414 153 
C 1005 153 979 178 979 426 
L 979 4396 
z
" transform="scale(0.015625)"/>
       <path id="CMR17-61" d="M 2304 1653 
C 2304 2072 2304 2294 2035 2543 
C 1798 2752 1523 2816 1306 2816 
C 800 2816 435 2407 435 1971 
C 435 1728 627 1728 666 1728 
C 749 1728 896 1778 896 1954 
C 896 2112 774 2181 666 2181 
C 640 2181 608 2174 589 2168 
C 723 2592 1069 2714 1293 2714 
C 1613 2714 1965 2429 1965 1885 
L 1965 1600 
C 1587 1600 1133 1549 774 1357 
C 371 1133 256 813 256 570 
C 256 77 832 -64 1171 -64 
C 1523 -64 1850 139 1990 511 
C 2003 233 2182 -18 2464 -18 
C 2598 -18 2938 70 2938 567 
L 2938 920 
L 2822 920 
L 2822 562 
C 2822 178 2650 128 2566 128 
C 2304 128 2304 458 2304 738 
L 2304 1653 
z
M 1965 870 
C 1965 317 1568 38 1216 38 
C 896 38 646 275 646 570 
C 646 761 730 1100 1101 1305 
C 1408 1478 1760 1504 1965 1504 
L 1965 870 
z
" transform="scale(0.015625)"/>
       <path id="CMR17-73" d="M 1978 2697 
C 1978 2813 1971 2819 1933 2819 
C 1907 2819 1901 2813 1824 2717 
C 1805 2691 1747 2626 1728 2601 
C 1523 2819 1235 2819 1126 2819 
C 416 2819 160 2447 160 2076 
C 160 1498 813 1365 998 1325 
C 1402 1243 1542 1217 1677 1101 
C 1760 1025 1901 884 1901 654 
C 1901 384 1747 38 1158 38 
C 602 38 403 460 288 1021 
C 269 1110 269 1117 218 1117 
C 166 1117 160 1110 160 983 
L 160 63 
C 160 -51 166 -58 205 -58 
C 237 -58 243 -51 275 0 
C 314 57 410 211 448 276 
C 576 103 800 -64 1158 -64 
C 1792 -64 2131 283 2131 784 
C 2131 1112 1958 1285 1875 1362 
C 1683 1561 1459 1606 1190 1657 
C 838 1735 390 1825 390 2217 
C 390 2383 480 2737 1126 2737 
C 1811 2737 1850 2094 1862 1888 
C 1869 1856 1901 1849 1920 1849 
C 1978 1849 1978 1869 1978 1978 
L 1978 2697 
z
" transform="scale(0.015625)"/>
       <path id="CMR17-69" d="M 992 3909 
C 992 4049 877 4170 730 4170 
C 589 4170 467 4056 467 3909 
C 467 3769 582 3648 730 3648 
C 870 3648 992 3763 992 3909 
z
M 243 2706 
L 243 2541 
C 602 2541 653 2502 653 2197 
L 653 427 
C 653 184 627 153 218 153 
L 218 -13 
C 371 0 646 0 806 0 
C 960 0 1222 0 1370 -13 
L 1370 153 
C 992 153 979 191 979 420 
L 979 2776 
L 243 2706 
z
" transform="scale(0.015625)"/>
       <path id="CMR17-c" d="M 2554 2764 
C 2400 2764 1926 2764 1805 2739 
C 1766 2725 1754 2725 1677 2725 
L 947 2725 
L 947 3469 
C 947 4073 1434 4352 1818 4352 
C 1939 4352 2214 4320 2355 4101 
C 2291 4101 2086 4101 2086 3878 
C 2086 3725 2189 3648 2317 3648 
C 2432 3648 2547 3712 2547 3885 
C 2547 4205 2240 4454 1843 4454 
C 1338 4454 634 4168 634 3469 
L 634 2725 
L 122 2725 
L 122 2560 
L 634 2560 
L 634 427 
C 634 184 608 153 198 153 
L 198 -13 
C 352 0 634 0 794 0 
C 960 0 1242 0 1395 -13 
L 1395 153 
C 986 153 960 178 960 427 
L 960 2560 
L 1901 2560 
C 2176 2560 2227 2502 2227 2222 
L 2227 427 
C 2227 184 2202 153 1792 153 
L 1792 -13 
C 1946 0 2227 0 2387 0 
C 2554 0 2835 0 2989 -13 
L 2989 153 
C 2579 153 2554 178 2554 427 
L 2554 2764 
z
" transform="scale(0.015625)"/>
       <path id="CMR17-63" d="M 2234 2240 
C 2112 2240 1933 2240 1933 2017 
C 1933 1838 2080 1787 2163 1787 
C 2208 1787 2394 1807 2394 2024 
C 2394 2467 1958 2803 1466 2803 
C 787 2803 211 2178 211 1363 
C 211 516 813 -64 1466 -64 
C 2259 -64 2458 677 2458 748 
C 2458 774 2451 793 2406 793 
C 2362 793 2355 787 2330 703 
C 2163 180 1798 51 1523 51 
C 1114 51 621 427 621 1369 
C 621 2338 1094 2688 1472 2688 
C 1722 2688 2093 2573 2234 2240 
z
" transform="scale(0.015625)"/>
       <path id="CMR17-74" d="M 966 2560 
L 1862 2560 
L 1862 2725 
L 966 2725 
L 966 3904 
L 851 3904 
C 838 3245 614 2668 70 2668 
L 70 2560 
L 627 2560 
L 627 771 
C 627 650 627 -64 1370 -64 
C 1747 -64 1965 306 1965 777 
L 1965 1140 
L 1850 1140 
L 1850 783 
C 1850 344 1677 51 1408 51 
C 1222 51 966 178 966 758 
L 966 2560 
z
" transform="scale(0.015625)"/>
       <path id="CMR17-6f" d="M 2758 1356 
C 2758 2176 2163 2816 1466 2816 
C 768 2816 173 2176 173 1356 
C 173 551 768 -64 1466 -64 
C 2163 -64 2758 551 2758 1356 
z
M 1466 51 
C 1165 51 909 230 762 480 
C 602 767 582 1126 582 1408 
C 582 1677 595 2010 762 2298 
C 890 2509 1139 2714 1466 2714 
C 1754 2714 1997 2554 2150 2330 
C 2349 2029 2349 1607 2349 1408 
C 2349 1158 2336 775 2163 467 
C 1984 173 1709 51 1466 51 
z
" transform="scale(0.015625)"/>
       <path id="CMR17-6e" d="M 2656 1933 
C 2656 2259 2592 2790 1837 2790 
C 1331 2790 1069 2400 973 2144 
L 966 2144 
L 966 2790 
L 211 2720 
L 211 2554 
C 589 2554 646 2515 646 2208 
L 646 428 
C 646 184 621 153 211 153 
L 211 -13 
C 365 0 646 0 813 0 
C 979 0 1267 0 1421 -13 
L 1421 153 
C 1011 153 986 178 986 428 
L 986 1658 
C 986 2247 1344 2688 1792 2688 
C 2266 2688 2317 2266 2317 1958 
L 2317 428 
C 2317 184 2291 153 1882 153 
L 1882 -13 
C 2035 0 2317 0 2483 0 
C 2650 0 2938 0 3091 -13 
L 3091 153 
C 2682 153 2656 178 2656 428 
L 2656 1933 
z
" transform="scale(0.015625)"/>
       <path id="CMR17-75" d="M 1882 2693 
L 1882 2528 
C 2259 2528 2317 2489 2317 2186 
L 2317 1032 
C 2317 500 2029 38 1555 38 
C 1030 38 986 348 986 678 
L 986 2763 
L 211 2693 
L 211 2528 
C 467 2528 640 2528 646 2274 
L 646 1058 
C 646 633 646 361 813 183 
C 896 101 1056 -64 1517 -64 
C 2061 -64 2272 377 2323 506 
L 2330 506 
L 2330 -63 
L 3091 -63 
L 3091 128 
C 2714 128 2656 166 2656 473 
L 2656 2763 
L 1882 2693 
z
" transform="scale(0.015625)"/>
       <path id="CMR17-72" d="M 960 1497 
C 960 2112 1222 2688 1702 2688 
C 1747 2688 1792 2682 1837 2662 
C 1837 2662 1696 2617 1696 2452 
C 1696 2298 1818 2234 1914 2234 
C 1990 2234 2131 2279 2131 2458 
C 2131 2663 1926 2790 1709 2790 
C 1222 2790 1011 2317 947 2093 
L 941 2093 
L 941 2790 
L 198 2720 
L 198 2554 
C 576 2554 634 2515 634 2208 
L 634 428 
C 634 184 608 153 198 153 
L 198 -13 
C 352 0 646 0 813 0 
C 998 0 1325 0 1498 -13 
L 1498 153 
C 1037 153 960 153 960 440 
L 960 1497 
z
" transform="scale(0.015625)"/>
       <path id="CMR17-79" d="M 2496 2197 
C 2656 2586 2944 2586 3034 2586 
L 3034 2752 
C 2912 2752 2752 2752 2630 2752 
C 2496 2752 2285 2752 2157 2758 
L 2157 2592 
C 2400 2573 2406 2394 2406 2343 
C 2406 2280 2394 2248 2362 2171 
L 1664 449 
L 902 2306 
C 870 2382 870 2426 870 2433 
C 870 2573 1018 2586 1171 2586 
L 1171 2758 
C 1018 2752 742 2752 582 2752 
C 410 2752 205 2752 64 2758 
L 64 2586 
C 410 2586 448 2554 531 2350 
L 1485 15 
C 1197 -738 1030 -1178 627 -1178 
C 557 -1178 397 -1159 282 -1044 
C 429 -1031 493 -942 493 -833 
C 493 -725 416 -629 288 -629 
C 147 -629 77 -725 77 -840 
C 77 -1095 339 -1280 627 -1280 
C 998 -1280 1229 -922 1357 -604 
L 2496 2197 
z
" transform="scale(0.015625)"/>
      </defs>
      <use xlink:href="#CMR17-43" transform="scale(0.996264)"/>
      <use xlink:href="#CMR17-6c" transform="translate(66.509881 0) scale(0.996264)"/>
      <use xlink:href="#CMR17-61" transform="translate(91.380939 0) scale(0.996264)"/>
      <use xlink:href="#CMR17-73" transform="translate(137.071416 0) scale(0.996264)"/>
      <use xlink:href="#CMR17-73" transform="translate(172.872754 0) scale(0.996264)"/>
      <use xlink:href="#CMR17-69" transform="translate(208.674091 0) scale(0.996264)"/>
      <use xlink:href="#CMR17-c" transform="translate(233.54515 0) scale(0.996264)"/>
      <use xlink:href="#CMR17-63" transform="translate(283.287373 0) scale(0.996264)"/>
      <use xlink:href="#CMR17-61" transform="translate(323.773034 0) scale(0.996264)"/>
      <use xlink:href="#CMR17-74" transform="translate(369.463511 0) scale(0.996264)"/>
      <use xlink:href="#CMR17-69" transform="translate(404.744279 0) scale(0.996264)"/>
      <use xlink:href="#CMR17-6f" transform="translate(429.615337 0) scale(0.996264)"/>
      <use xlink:href="#CMR17-6e" transform="translate(475.305814 0) scale(0.996264)"/>
      <use xlink:href="#CMR17-61" transform="translate(556.27715 0) scale(0.996264)"/>
      <use xlink:href="#CMR17-63" transform="translate(601.967628 0) scale(0.996264)"/>
      <use xlink:href="#CMR17-63" transform="translate(642.453288 0) scale(0.996264)"/>
      <use xlink:href="#CMR17-75" transform="translate(682.938948 0) scale(0.996264)"/>
      <use xlink:href="#CMR17-72" transform="translate(733.834318 0) scale(0.996264)"/>
      <use xlink:href="#CMR17-61" transform="translate(769.115086 0) scale(0.996264)"/>
      <use xlink:href="#CMR17-63" transform="translate(814.805563 0) scale(0.996264)"/>
      <use xlink:href="#CMR17-79" transform="translate(855.291224 0) scale(0.996264)"/>
     </g>
    </g>
   </g>
   <g id="patch_3">
    <path d="M 44.029761 181.286376 
L 44.029761 14.966376 
" style="fill: none; stroke: #000000; stroke-width: 0.5; stroke-linejoin: miter; stroke-linecap: square"/>
   </g>
   <g id="patch_4">
    <path d="M 490.429761 181.286376 
L 490.429761 14.966376 
" style="fill: none; stroke: #000000; stroke-width: 0.5; stroke-linejoin: miter; stroke-linecap: square"/>
   </g>
   <g id="patch_5">
    <path d="M 44.029761 181.286376 
L 490.429761 181.286376 
" style="fill: none; stroke: #000000; stroke-width: 0.5; stroke-linejoin: miter; stroke-linecap: square"/>
   </g>
   <g id="patch_6">
    <path d="M 44.029761 14.966376 
L 490.429761 14.966376 
" style="fill: none; stroke: #000000; stroke-width: 0.5; stroke-linejoin: miter; stroke-linecap: square"/>
   </g>
   <g id="text_16">
    <!-- Accuracy of 3-Layer Network for Varying Skip Connection Strengths ($t$) -->
    <g transform="translate(82.428853 8.966376) scale(0.12 -0.12)">
     <defs>
      <path id="CMR17-41" d="M 2323 4378 
C 2291 4461 2278 4480 2214 4480 
C 2150 4480 2138 4461 2106 4378 
L 749 566 
C 627 223 371 153 147 153 
L 147 -13 
C 262 0 518 0 640 0 
C 800 0 1056 0 1210 -13 
L 1210 153 
C 909 153 864 361 864 439 
C 864 497 877 530 890 569 
L 1229 1536 
L 2906 1536 
L 3290 442 
C 3322 365 3322 352 3322 327 
C 3322 153 3046 153 2925 153 
L 2925 0 
C 3110 0 3443 0 3642 0 
C 3808 0 4128 0 4282 -13 
L 4282 153 
C 3942 153 3827 153 3744 387 
L 2323 4378 
z
M 2067 3893 
L 2848 1702 
L 1286 1702 
L 2067 3893 
z
" transform="scale(0.015625)"/>
      <path id="CMR17-66" d="M 979 2560 
L 1709 2560 
L 1709 2725 
L 966 2725 
L 966 3494 
C 966 4022 1235 4352 1510 4352 
C 1594 4352 1690 4327 1754 4282 
C 1702 4269 1568 4225 1568 4067 
C 1568 3901 1696 3850 1786 3850 
C 1875 3850 2003 3901 2003 4067 
C 2003 4308 1773 4454 1517 4454 
C 1152 4454 653 4156 653 3481 
L 653 2725 
L 141 2725 
L 141 2560 
L 653 2560 
L 653 427 
C 653 184 627 153 218 153 
L 218 -13 
C 371 0 666 0 832 0 
C 1018 0 1344 0 1517 -13 
L 1517 153 
C 1056 153 979 153 979 439 
L 979 2560 
z
" transform="scale(0.015625)"/>
      <path id="CMR17-33" d="M 1414 2157 
C 1984 2157 2234 1662 2234 1090 
C 2234 320 1824 25 1453 25 
C 1114 25 563 194 390 693 
C 422 680 454 680 486 680 
C 640 680 755 782 755 948 
C 755 1133 614 1216 486 1216 
C 378 1216 211 1165 211 926 
C 211 335 787 -128 1466 -128 
C 2176 -128 2720 430 2720 1085 
C 2720 1707 2208 2157 1600 2227 
C 2086 2328 2554 2756 2554 3329 
C 2554 3820 2048 4179 1472 4179 
C 890 4179 378 3829 378 3329 
C 378 3110 544 3072 627 3072 
C 762 3072 877 3155 877 3321 
C 877 3486 762 3569 627 3569 
C 602 3569 570 3569 544 3557 
C 730 3959 1235 4032 1459 4032 
C 1683 4032 2106 3925 2106 3320 
C 2106 3143 2080 2828 1862 2550 
C 1670 2304 1453 2304 1242 2284 
C 1210 2284 1062 2269 1037 2269 
C 992 2263 966 2257 966 2208 
C 966 2163 973 2157 1101 2157 
L 1414 2157 
z
" transform="scale(0.015625)"/>
      <path id="CMR17-2d" d="M 1632 1216 
L 1632 1496 
L 26 1496 
L 26 1216 
L 1632 1216 
z
" transform="scale(0.015625)"/>
      <path id="CMR17-4c" d="M 3469 1615 
L 3354 1615 
C 3302 983 3219 166 2125 166 
L 1530 166 
C 1274 166 1261 197 1261 414 
L 1261 3898 
C 1261 4129 1274 4192 1760 4192 
L 1901 4192 
L 1901 4352 
C 1638 4352 1331 4352 1069 4352 
C 870 4352 512 4352 326 4352 
L 326 4192 
C 768 4192 838 4192 838 3905 
L 838 452 
C 838 166 768 166 326 166 
L 326 0 
L 3315 0 
L 3469 1615 
z
" transform="scale(0.015625)"/>
      <path id="CMR17-65" d="M 2438 1472 
C 2464 1498 2464 1511 2464 1576 
C 2464 2238 2118 2816 1389 2816 
C 710 2816 173 2169 173 1383 
C 173 551 781 -64 1459 -64 
C 2176 -64 2458 607 2458 740 
C 2458 784 2419 784 2406 784 
C 2362 784 2355 771 2330 696 
C 2189 265 1837 51 1504 51 
C 1229 51 954 203 781 480 
C 582 803 582 1176 582 1472 
L 2438 1472 
z
M 589 1568 
C 634 2505 1126 2714 1382 2714 
C 1818 2714 2112 2297 2118 1568 
L 589 1568 
z
" transform="scale(0.015625)"/>
      <path id="CMR17-4e" d="M 1312 4250 
C 1267 4320 1261 4320 1139 4320 
L 326 4320 
L 326 4160 
L 448 4160 
C 704 4160 819 4129 838 4122 
L 838 610 
C 838 451 838 153 326 153 
L 326 -13 
C 474 0 742 0 902 0 
C 1062 0 1331 0 1478 -13 
L 1478 153 
C 966 153 966 451 966 610 
L 966 4033 
C 1011 3995 1011 3982 1056 3919 
L 3430 76 
C 3475 0 3494 0 3526 0 
C 3590 0 3590 19 3590 139 
L 3590 3705 
C 3590 3863 3590 4160 4102 4160 
L 4102 4326 
C 3955 4320 3686 4320 3526 4320 
C 3366 4320 3098 4320 2950 4326 
L 2950 4160 
C 3462 4160 3462 3862 3462 3703 
L 3462 763 
L 1312 4250 
z
" transform="scale(0.015625)"/>
      <path id="CMR17-77" d="M 3725 2183 
C 3853 2560 4109 2560 4205 2560 
L 4205 2732 
C 4077 2732 3949 2732 3821 2732 
C 3699 2732 3424 2732 3315 2738 
L 3315 2560 
C 3514 2560 3622 2445 3622 2286 
C 3622 2241 3610 2184 3597 2140 
L 2995 407 
L 2342 2275 
C 2330 2319 2310 2370 2310 2395 
C 2310 2560 2528 2560 2630 2560 
L 2630 2738 
C 2483 2732 2214 2732 2061 2732 
C 1901 2732 1734 2732 1587 2738 
L 1587 2560 
C 1939 2560 1939 2547 2074 2149 
L 1485 451 
L 851 2281 
C 819 2363 819 2376 819 2395 
C 819 2560 1037 2560 1139 2560 
L 1139 2738 
C 986 2732 717 2732 557 2732 
C 416 2732 198 2732 64 2738 
L 64 2560 
C 346 2560 416 2541 486 2331 
L 1274 49 
C 1299 -33 1318 -52 1370 -52 
C 1414 -52 1440 -39 1472 56 
L 2131 1980 
L 2797 56 
C 2829 -39 2854 -52 2899 -52 
C 2950 -52 2970 -33 2995 50 
L 3725 2183 
z
" transform="scale(0.015625)"/>
      <path id="CMR17-6b" d="M 1670 1673 
C 1664 1686 1632 1724 1632 1743 
C 1632 1756 2086 2171 2144 2222 
C 2509 2528 2739 2560 2906 2560 
L 2906 2733 
C 2867 2733 2854 2733 2848 2720 
L 2534 2720 
C 2355 2720 2080 2720 1907 2733 
L 1907 2566 
C 1997 2559 2061 2508 2061 2419 
C 2061 2291 1933 2170 1926 2170 
L 960 1289 
L 960 4396 
L 198 4326 
L 198 4160 
C 576 4160 634 4122 634 3817 
L 634 426 
C 634 184 608 153 198 153 
L 198 -13 
C 352 0 634 0 794 0 
C 954 0 1235 0 1389 -13 
L 1389 153 
C 979 153 954 178 954 428 
L 954 1130 
L 1395 1532 
L 2042 574 
C 2118 459 2182 369 2182 286 
C 2182 172 2067 153 1990 153 
L 1990 -13 
C 2144 0 2419 0 2579 0 
C 2694 0 2931 0 3040 0 
L 3040 153 
C 2739 153 2669 210 2477 491 
L 1670 1673 
z
" transform="scale(0.015625)"/>
      <path id="CMR17-56" d="M 3776 3745 
C 3834 3886 3936 4160 4365 4160 
L 4365 4332 
C 4218 4319 4051 4319 3891 4319 
C 3738 4319 3475 4319 3328 4332 
L 3328 4160 
C 3648 4160 3661 3936 3661 3898 
C 3661 3827 3642 3783 3622 3732 
L 2362 446 
L 1043 3886 
C 1024 3931 1011 3963 1011 3994 
C 1011 4160 1267 4160 1402 4160 
L 1402 4319 
C 1197 4319 896 4319 685 4319 
C 518 4319 218 4319 64 4332 
L 64 4160 
C 435 4160 506 4135 582 3931 
L 2106 -26 
C 2138 -115 2144 -128 2214 -128 
C 2285 -128 2291 -115 2323 -26 
L 3776 3745 
z
" transform="scale(0.015625)"/>
      <path id="CMR17-67" d="M 710 1164 
C 832 1068 1043 960 1299 960 
C 1805 960 2240 1357 2240 1888 
C 2240 2054 2189 2310 1997 2509 
C 2176 2692 2438 2752 2586 2752 
C 2611 2752 2650 2752 2682 2734 
C 2656 2728 2598 2703 2598 2605 
C 2598 2527 2656 2471 2739 2471 
C 2835 2471 2886 2533 2886 2614 
C 2886 2731 2790 2854 2586 2854 
C 2330 2854 2106 2738 1926 2580 
C 1734 2753 1504 2816 1299 2816 
C 794 2816 358 2419 358 1888 
C 358 1522 570 1292 634 1228 
C 442 1004 442 743 442 711 
C 442 545 506 302 723 168 
C 390 85 128 -169 128 -486 
C 128 -943 736 -1280 1466 -1280 
C 2170 -1280 2803 -956 2803 -479 
C 2803 384 1856 384 1363 384 
C 1216 384 954 384 922 391 
C 723 423 589 602 589 826 
C 589 883 589 1024 710 1164 
z
M 1299 1068 
C 736 1068 736 1760 736 1889 
C 736 2016 736 2708 1299 2708 
C 1862 2708 1862 2016 1862 1889 
C 1862 1760 1862 1068 1299 1068 
z
M 1466 -1171 
C 826 -1171 384 -835 384 -486 
C 384 -289 493 -105 634 -4 
C 794 104 858 104 1293 104 
C 1818 104 2547 104 2547 -486 
C 2547 -835 2106 -1171 1466 -1171 
z
" transform="scale(0.015625)"/>
      <path id="CMR17-53" d="M 2803 4290 
C 2803 4404 2797 4411 2758 4411 
C 2720 4411 2707 4385 2682 4328 
L 2490 3907 
C 2246 4257 1875 4416 1472 4416 
C 819 4416 294 3901 294 3253 
C 294 3056 339 2776 557 2510 
C 794 2218 1018 2167 1530 2033 
C 1722 1982 2042 1899 2106 1874 
C 2470 1722 2662 1341 2662 985 
C 2662 527 2336 38 1779 38 
C 1094 38 454 419 410 1311 
C 403 1413 397 1419 352 1419 
C 301 1419 294 1413 294 1285 
L 294 -1 
C 294 -115 301 -122 339 -122 
C 384 -122 397 -90 486 108 
C 493 127 493 140 614 381 
C 934 -39 1472 -128 1779 -128 
C 2477 -128 2970 451 2970 1124 
C 2970 1454 2848 1708 2778 1823 
C 2509 2230 2221 2306 1914 2382 
C 1869 2402 1856 2402 1498 2490 
C 1152 2579 1005 2624 845 2796 
C 666 2992 602 3196 602 3399 
C 602 3812 934 4263 1478 4263 
C 2157 4263 2579 3786 2675 2993 
C 2694 2878 2701 2872 2746 2872 
C 2803 2872 2803 2891 2803 2999 
L 2803 4290 
z
" transform="scale(0.015625)"/>
      <path id="CMR17-70" d="M 1408 -1063 
C 998 -1063 973 -1037 973 -789 
L 973 402 
C 1158 134 1427 -38 1766 -38 
C 2406 -38 3053 523 3053 1388 
C 3053 2191 2496 2802 1837 2802 
C 1453 2802 1139 2592 960 2338 
L 960 2802 
L 198 2732 
L 198 2567 
C 576 2567 634 2528 634 2223 
L 634 -789 
C 634 -1031 608 -1063 198 -1063 
L 198 -1228 
C 352 -1216 634 -1216 800 -1216 
C 966 -1216 1254 -1216 1408 -1228 
L 1408 -1063 
z
M 973 2012 
C 973 2102 973 2235 1222 2471 
C 1254 2497 1472 2688 1792 2688 
C 2259 2688 2643 2108 2643 1382 
C 2643 656 2234 64 1728 64 
C 1498 64 1248 172 1056 472 
C 973 612 973 650 973 752 
L 973 2012 
z
" transform="scale(0.015625)"/>
      <path id="CMR17-68" d="M 2656 1933 
C 2656 2259 2592 2790 1837 2790 
C 1312 2790 1056 2368 979 2157 
L 973 2157 
L 973 4396 
L 211 4326 
L 211 4160 
C 589 4160 646 4122 646 3817 
L 646 426 
C 646 184 621 153 211 153 
L 211 -13 
C 365 0 646 0 813 0 
C 979 0 1267 0 1421 -13 
L 1421 153 
C 1011 153 986 178 986 428 
L 986 1658 
C 986 2247 1344 2688 1792 2688 
C 2266 2688 2317 2266 2317 1958 
L 2317 428 
C 2317 184 2291 153 1882 153 
L 1882 -13 
C 2035 0 2317 0 2483 0 
C 2650 0 2938 0 3091 -13 
L 3091 153 
C 2682 153 2656 178 2656 428 
L 2656 1933 
z
" transform="scale(0.015625)"/>
      <path id="CMR17-28" d="M 1958 -1561 
C 1958 -1555 1958 -1542 1939 -1523 
C 1645 -1224 858 -407 858 1581 
C 858 3569 1632 4379 1946 4697 
C 1946 4704 1958 4717 1958 4736 
C 1958 4755 1939 4768 1914 4768 
C 1843 4768 1299 4296 986 3594 
C 666 2887 576 2199 576 1588 
C 576 1128 621 351 1005 -471 
C 1312 -1135 1837 -1600 1914 -1600 
C 1946 -1600 1958 -1587 1958 -1561 
z
" transform="scale(0.015625)"/>
      <path id="CMR17-29" d="M 1683 1581 
C 1683 2040 1638 2817 1254 3639 
C 947 4303 422 4768 346 4768 
C 326 4768 301 4761 301 4729 
C 301 4717 307 4710 314 4697 
C 621 4378 1402 3568 1402 1584 
C 1402 -407 627 -1217 314 -1537 
C 307 -1549 301 -1556 301 -1568 
C 301 -1600 326 -1600 346 -1600 
C 416 -1600 960 -1128 1274 -426 
C 1594 281 1683 969 1683 1581 
z
" transform="scale(0.015625)"/>
     </defs>
     <use xlink:href="#CMR17-41" transform="scale(0.996264)"/>
     <use xlink:href="#CMR17-63" transform="translate(69.07243 0) scale(0.996264)"/>
     <use xlink:href="#CMR17-63" transform="translate(109.55809 0) scale(0.996264)"/>
     <use xlink:href="#CMR17-75" transform="translate(150.043751 0) scale(0.996264)"/>
     <use xlink:href="#CMR17-72" transform="translate(200.939121 0) scale(0.996264)"/>
     <use xlink:href="#CMR17-61" transform="translate(236.219888 0) scale(0.996264)"/>
     <use xlink:href="#CMR17-63" transform="translate(281.910365 0) scale(0.996264)"/>
     <use xlink:href="#CMR17-79" transform="translate(322.396026 0) scale(0.996264)"/>
     <use xlink:href="#CMR17-6f" transform="translate(400.764908 0) scale(0.996264)"/>
     <use xlink:href="#CMR17-66" transform="translate(446.455385 0) scale(0.996264)"/>
     <use xlink:href="#CMR17-33" transform="translate(504.004864 0) scale(0.996264)"/>
     <use xlink:href="#CMR17-2d" transform="translate(549.695341 0) scale(0.996264)"/>
     <use xlink:href="#CMR17-4c" transform="translate(579.771307 0) scale(0.996264)"/>
     <use xlink:href="#CMR17-61" transform="translate(637.152715 0) scale(0.996264)"/>
     <use xlink:href="#CMR17-79" transform="translate(680.240738 0) scale(0.996264)"/>
     <use xlink:href="#CMR17-65" transform="translate(725.9312 0) scale(0.996264)"/>
     <use xlink:href="#CMR17-72" transform="translate(766.416861 0) scale(0.996264)"/>
     <use xlink:href="#CMR17-4e" transform="translate(831.773595 0) scale(0.996264)"/>
     <use xlink:href="#CMR17-65" transform="translate(900.846025 0) scale(0.996264)"/>
     <use xlink:href="#CMR17-74" transform="translate(941.331685 0) scale(0.996264)"/>
     <use xlink:href="#CMR17-77" transform="translate(974.009999 0) scale(0.996264)"/>
     <use xlink:href="#CMR17-6f" transform="translate(1037.917426 0) scale(0.996264)"/>
     <use xlink:href="#CMR17-72" transform="translate(1083.607903 0) scale(0.996264)"/>
     <use xlink:href="#CMR17-6b" transform="translate(1118.888671 0) scale(0.996264)"/>
     <use xlink:href="#CMR17-66" transform="translate(1197.257553 0) scale(0.996264)"/>
     <use xlink:href="#CMR17-6f" transform="translate(1224.731065 0) scale(0.996264)"/>
     <use xlink:href="#CMR17-72" transform="translate(1270.421542 0) scale(0.996264)"/>
     <use xlink:href="#CMR17-56" transform="translate(1335.778277 0) scale(0.996264)"/>
     <use xlink:href="#CMR17-61" transform="translate(1397.043451 0) scale(0.996264)"/>
     <use xlink:href="#CMR17-72" transform="translate(1442.733928 0) scale(0.996264)"/>
     <use xlink:href="#CMR17-79" transform="translate(1478.014696 0) scale(0.996264)"/>
     <use xlink:href="#CMR17-69" transform="translate(1526.307612 0) scale(0.996264)"/>
     <use xlink:href="#CMR17-6e" transform="translate(1551.17867 0) scale(0.996264)"/>
     <use xlink:href="#CMR17-67" transform="translate(1602.07404 0) scale(0.996264)"/>
     <use xlink:href="#CMR17-53" transform="translate(1677.840483 0) scale(0.996264)"/>
     <use xlink:href="#CMR17-6b" transform="translate(1728.735853 0) scale(0.996264)"/>
     <use xlink:href="#CMR17-69" transform="translate(1777.028769 0) scale(0.996264)"/>
     <use xlink:href="#CMR17-70" transform="translate(1801.899828 0) scale(0.996264)"/>
     <use xlink:href="#CMR17-43" transform="translate(1882.871164 0) scale(0.996264)"/>
     <use xlink:href="#CMR17-6f" transform="translate(1949.381044 0) scale(0.996264)"/>
     <use xlink:href="#CMR17-6e" transform="translate(1995.071521 0) scale(0.996264)"/>
     <use xlink:href="#CMR17-6e" transform="translate(2045.966891 0) scale(0.996264)"/>
     <use xlink:href="#CMR17-65" transform="translate(2096.862261 0) scale(0.996264)"/>
     <use xlink:href="#CMR17-63" transform="translate(2137.347921 0) scale(0.996264)"/>
     <use xlink:href="#CMR17-74" transform="translate(2177.833582 0) scale(0.996264)"/>
     <use xlink:href="#CMR17-69" transform="translate(2213.11435 0) scale(0.996264)"/>
     <use xlink:href="#CMR17-6f" transform="translate(2237.985408 0) scale(0.996264)"/>
     <use xlink:href="#CMR17-6e" transform="translate(2283.675885 0) scale(0.996264)"/>
     <use xlink:href="#CMR17-53" transform="translate(2364.647221 0) scale(0.996264)"/>
     <use xlink:href="#CMR17-74" transform="translate(2415.542591 0) scale(0.996264)"/>
     <use xlink:href="#CMR17-72" transform="translate(2450.823359 0) scale(0.996264)"/>
     <use xlink:href="#CMR17-65" transform="translate(2486.104127 0) scale(0.996264)"/>
     <use xlink:href="#CMR17-6e" transform="translate(2526.589787 0) scale(0.996264)"/>
     <use xlink:href="#CMR17-67" transform="translate(2577.485157 0) scale(0.996264)"/>
     <use xlink:href="#CMR17-74" transform="translate(2623.175634 0) scale(0.996264)"/>
     <use xlink:href="#CMR17-68" transform="translate(2658.456402 0) scale(0.996264)"/>
     <use xlink:href="#CMR17-73" transform="translate(2709.351772 0) scale(0.996264)"/>
     <use xlink:href="#CMR17-28" transform="translate(2775.229076 0) scale(0.996264)"/>
     <use xlink:href="#CMMI12-74" transform="translate(2810.509843 0) scale(0.996264)"/>
     <use xlink:href="#CMR17-29" transform="translate(2845.736174 0) scale(0.996264)"/>
    </g>
   </g>
   <g id="legend_1">
    <g id="PathCollection_4">
     <g>
      <use xlink:href="#mcbe7664794" x="63.029761" y="137.245436" style="fill: #0c5da5; fill-opacity: 0.8; stroke: #0c5da5; stroke-opacity: 0.8"/>
     </g>
    </g>
    <g id="text_17">
     <!-- Validation set: first epoch (mean) -->
     <g transform="translate(81.029761 139.870436) scale(0.1 -0.1)">
      <defs>
       <path id="CMR17-64" d="M 1869 4326 
L 1869 4160 
C 2246 4160 2304 4122 2304 3820 
L 2304 2345 
C 2278 2377 2016 2790 1498 2790 
C 845 2790 211 2208 211 1364 
C 211 525 806 -64 1434 -64 
C 1978 -64 2259 337 2291 380 
L 2291 -63 
L 3066 -63 
L 3066 128 
C 2688 128 2630 166 2630 473 
L 2630 4396 
L 1869 4326 
z
M 2291 755 
C 2291 563 2176 390 2029 262 
C 1811 70 1594 38 1472 38 
C 1286 38 621 134 621 1356 
C 621 2612 1363 2688 1530 2688 
C 1824 2688 2061 2522 2208 2291 
C 2291 2157 2291 2138 2291 2023 
L 2291 755 
z
" transform="scale(0.015625)"/>
       <path id="CMR17-3a" d="M 1062 2491 
C 1062 2650 934 2752 800 2752 
C 672 2752 538 2650 538 2491 
C 538 2332 666 2230 800 2230 
C 928 2230 1062 2332 1062 2491 
z
M 1062 261 
C 1062 420 934 522 800 522 
C 672 522 538 420 538 261 
C 538 102 666 0 800 0 
C 928 0 1062 102 1062 261 
z
" transform="scale(0.015625)"/>
       <path id="CMR17-6d" d="M 4326 1933 
C 4326 2252 4269 2790 3507 2790 
C 3072 2790 2771 2496 2656 2151 
L 2650 2151 
C 2573 2676 2195 2790 1837 2790 
C 1331 2790 1069 2400 973 2144 
L 966 2144 
L 966 2790 
L 211 2720 
L 211 2554 
C 589 2554 646 2515 646 2208 
L 646 428 
C 646 184 621 153 211 153 
L 211 -13 
C 365 0 646 0 813 0 
C 979 0 1267 0 1421 -13 
L 1421 153 
C 1011 153 986 178 986 428 
L 986 1658 
C 986 2247 1344 2688 1792 2688 
C 2266 2688 2317 2266 2317 1958 
L 2317 428 
C 2317 184 2291 153 1882 153 
L 1882 -13 
C 2035 0 2317 0 2483 0 
C 2650 0 2938 0 3091 -13 
L 3091 153 
C 2682 153 2656 178 2656 428 
L 2656 1658 
C 2656 2247 3014 2688 3462 2688 
C 3936 2688 3987 2266 3987 1958 
L 3987 428 
C 3987 184 3962 153 3552 153 
L 3552 -13 
C 3706 0 3987 0 4154 0 
C 4320 0 4608 0 4762 -13 
L 4762 153 
C 4352 153 4326 178 4326 428 
L 4326 1933 
z
" transform="scale(0.015625)"/>
      </defs>
      <use xlink:href="#CMR17-56" transform="scale(0.996264)"/>
      <use xlink:href="#CMR17-61" transform="translate(61.265174 0) scale(0.996264)"/>
      <use xlink:href="#CMR17-6c" transform="translate(106.955652 0) scale(0.996264)"/>
      <use xlink:href="#CMR17-69" transform="translate(131.82671 0) scale(0.996264)"/>
      <use xlink:href="#CMR17-64" transform="translate(156.697768 0) scale(0.996264)"/>
      <use xlink:href="#CMR17-61" transform="translate(207.593138 0) scale(0.996264)"/>
      <use xlink:href="#CMR17-74" transform="translate(253.283615 0) scale(0.996264)"/>
      <use xlink:href="#CMR17-69" transform="translate(288.564383 0) scale(0.996264)"/>
      <use xlink:href="#CMR17-6f" transform="translate(313.435442 0) scale(0.996264)"/>
      <use xlink:href="#CMR17-6e" transform="translate(359.125919 0) scale(0.996264)"/>
      <use xlink:href="#CMR17-73" transform="translate(440.097255 0) scale(0.996264)"/>
      <use xlink:href="#CMR17-65" transform="translate(475.898593 0) scale(0.996264)"/>
      <use xlink:href="#CMR17-74" transform="translate(516.384253 0) scale(0.996264)"/>
      <use xlink:href="#CMR17-3a" transform="translate(551.665021 0) scale(0.996264)"/>
      <use xlink:href="#CMR17-c" transform="translate(617.02174 0) scale(0.996264)"/>
      <use xlink:href="#CMR17-72" transform="translate(666.763963 0) scale(0.996264)"/>
      <use xlink:href="#CMR17-73" transform="translate(702.044731 0) scale(0.996264)"/>
      <use xlink:href="#CMR17-74" transform="translate(737.846069 0) scale(0.996264)"/>
      <use xlink:href="#CMR17-65" transform="translate(803.202803 0) scale(0.996264)"/>
      <use xlink:href="#CMR17-70" transform="translate(843.688463 0) scale(0.996264)"/>
      <use xlink:href="#CMR17-6f" transform="translate(897.186272 0) scale(0.996264)"/>
      <use xlink:href="#CMR17-63" transform="translate(945.479188 0) scale(0.996264)"/>
      <use xlink:href="#CMR17-68" transform="translate(983.362394 0) scale(0.996264)"/>
      <use xlink:href="#CMR17-28" transform="translate(1064.33373 0) scale(0.996264)"/>
      <use xlink:href="#CMR17-6d" transform="translate(1099.614498 0) scale(0.996264)"/>
      <use xlink:href="#CMR17-65" transform="translate(1176.534088 0) scale(0.996264)"/>
      <use xlink:href="#CMR17-61" transform="translate(1217.019748 0) scale(0.996264)"/>
      <use xlink:href="#CMR17-6e" transform="translate(1262.710225 0) scale(0.996264)"/>
      <use xlink:href="#CMR17-29" transform="translate(1313.605595 0) scale(0.996264)"/>
     </g>
    </g>
    <g id="PathCollection_5">
     <g>
      <use xlink:href="#ma9be72f4ce" x="63.029761" y="152.208076" style="fill: #00b945; fill-opacity: 0.8; stroke: #00b945; stroke-opacity: 0.8"/>
     </g>
    </g>
    <g id="text_18">
     <!-- Validation setL last epoch (mean) -->
     <g transform="translate(81.029761 154.833076) scale(0.1 -0.1)">
      <use xlink:href="#CMR17-56" transform="scale(0.996264)"/>
      <use xlink:href="#CMR17-61" transform="translate(61.265174 0) scale(0.996264)"/>
      <use xlink:href="#CMR17-6c" transform="translate(106.955652 0) scale(0.996264)"/>
      <use xlink:href="#CMR17-69" transform="translate(131.82671 0) scale(0.996264)"/>
      <use xlink:href="#CMR17-64" transform="translate(156.697768 0) scale(0.996264)"/>
      <use xlink:href="#CMR17-61" transform="translate(207.593138 0) scale(0.996264)"/>
      <use xlink:href="#CMR17-74" transform="translate(253.283615 0) scale(0.996264)"/>
      <use xlink:href="#CMR17-69" transform="translate(288.564383 0) scale(0.996264)"/>
      <use xlink:href="#CMR17-6f" transform="translate(313.435442 0) scale(0.996264)"/>
      <use xlink:href="#CMR17-6e" transform="translate(359.125919 0) scale(0.996264)"/>
      <use xlink:href="#CMR17-73" transform="translate(440.097255 0) scale(0.996264)"/>
      <use xlink:href="#CMR17-65" transform="translate(475.898593 0) scale(0.996264)"/>
      <use xlink:href="#CMR17-74" transform="translate(516.384253 0) scale(0.996264)"/>
      <use xlink:href="#CMR17-4c" transform="translate(551.665021 0) scale(0.996264)"/>
      <use xlink:href="#CMR17-6c" transform="translate(639.122395 0) scale(0.996264)"/>
      <use xlink:href="#CMR17-61" transform="translate(663.993454 0) scale(0.996264)"/>
      <use xlink:href="#CMR17-73" transform="translate(709.683931 0) scale(0.996264)"/>
      <use xlink:href="#CMR17-74" transform="translate(745.485268 0) scale(0.996264)"/>
      <use xlink:href="#CMR17-65" transform="translate(810.842002 0) scale(0.996264)"/>
      <use xlink:href="#CMR17-70" transform="translate(851.327663 0) scale(0.996264)"/>
      <use xlink:href="#CMR17-6f" transform="translate(904.825471 0) scale(0.996264)"/>
      <use xlink:href="#CMR17-63" transform="translate(953.118387 0) scale(0.996264)"/>
      <use xlink:href="#CMR17-68" transform="translate(991.001594 0) scale(0.996264)"/>
      <use xlink:href="#CMR17-28" transform="translate(1071.97293 0) scale(0.996264)"/>
      <use xlink:href="#CMR17-6d" transform="translate(1107.253698 0) scale(0.996264)"/>
      <use xlink:href="#CMR17-65" transform="translate(1184.173288 0) scale(0.996264)"/>
      <use xlink:href="#CMR17-61" transform="translate(1224.658948 0) scale(0.996264)"/>
      <use xlink:href="#CMR17-6e" transform="translate(1270.349425 0) scale(0.996264)"/>
      <use xlink:href="#CMR17-29" transform="translate(1321.244795 0) scale(0.996264)"/>
     </g>
    </g>
    <g id="PathCollection_6">
     <g>
      <use xlink:href="#m29220ce45b" x="63.029761" y="167.170716" style="fill: #ff9500; fill-opacity: 0.8; stroke: #ff9500; stroke-opacity: 0.8"/>
     </g>
    </g>
    <g id="text_19">
     <!-- Train set: last epoch (mean) -->
     <g transform="translate(81.029761 169.795716) scale(0.1 -0.1)">
      <defs>
       <path id="CMR17-54" d="M 3981 4326 
L 288 4326 
L 179 2918 
L 294 2918 
C 378 3976 467 4160 1453 4160 
C 1568 4160 1754 4160 1805 4154 
C 1926 4135 1926 4058 1926 3912 
L 1926 459 
C 1926 230 1907 160 1376 160 
L 1197 160 
L 1197 0 
C 1504 0 1824 0 2138 0 
C 2451 0 2771 0 3078 0 
L 3078 160 
L 2899 160 
C 2368 160 2349 230 2349 459 
L 2349 3912 
C 2349 4052 2349 4129 2464 4154 
C 2515 4160 2701 4160 2816 4160 
C 3795 4160 3891 3976 3974 2918 
L 4090 2918 
L 3981 4326 
z
" transform="scale(0.015625)"/>
      </defs>
      <use xlink:href="#CMR17-54" transform="scale(0.996264)"/>
      <use xlink:href="#CMR17-72" transform="translate(58.702625 0) scale(0.996264)"/>
      <use xlink:href="#CMR17-61" transform="translate(93.983393 0) scale(0.996264)"/>
      <use xlink:href="#CMR17-69" transform="translate(139.67387 0) scale(0.996264)"/>
      <use xlink:href="#CMR17-6e" transform="translate(164.544929 0) scale(0.996264)"/>
      <use xlink:href="#CMR17-73" transform="translate(245.516265 0) scale(0.996264)"/>
      <use xlink:href="#CMR17-65" transform="translate(281.317602 0) scale(0.996264)"/>
      <use xlink:href="#CMR17-74" transform="translate(321.803263 0) scale(0.996264)"/>
      <use xlink:href="#CMR17-3a" transform="translate(357.084031 0) scale(0.996264)"/>
      <use xlink:href="#CMR17-6c" transform="translate(422.44075 0) scale(0.996264)"/>
      <use xlink:href="#CMR17-61" transform="translate(447.311808 0) scale(0.996264)"/>
      <use xlink:href="#CMR17-73" transform="translate(493.002285 0) scale(0.996264)"/>
      <use xlink:href="#CMR17-74" transform="translate(528.803623 0) scale(0.996264)"/>
      <use xlink:href="#CMR17-65" transform="translate(594.160357 0) scale(0.996264)"/>
      <use xlink:href="#CMR17-70" transform="translate(634.646017 0) scale(0.996264)"/>
      <use xlink:href="#CMR17-6f" transform="translate(688.143826 0) scale(0.996264)"/>
      <use xlink:href="#CMR17-63" transform="translate(736.436742 0) scale(0.996264)"/>
      <use xlink:href="#CMR17-68" transform="translate(774.319948 0) scale(0.996264)"/>
      <use xlink:href="#CMR17-28" transform="translate(855.291284 0) scale(0.996264)"/>
      <use xlink:href="#CMR17-6d" transform="translate(890.572052 0) scale(0.996264)"/>
      <use xlink:href="#CMR17-65" transform="translate(967.491642 0) scale(0.996264)"/>
      <use xlink:href="#CMR17-61" transform="translate(1007.977303 0) scale(0.996264)"/>
      <use xlink:href="#CMR17-6e" transform="translate(1053.66778 0) scale(0.996264)"/>
      <use xlink:href="#CMR17-29" transform="translate(1104.563149 0) scale(0.996264)"/>
     </g>
    </g>
   </g>
  </g>
 </g>
 <defs>
  <clipPath id="p4291471faa">
   <rect x="44.029761" y="14.966376" width="446.4" height="166.32"/>
  </clipPath>
 </defs>
</svg>
